<?xml version="1.0" encoding="UTF-8"?>
<svg width="87px" height="86px" viewBox="0 0 87 86" version="1.1" xmlns="http://www.w3.org/2000/svg" xmlns:xlink="http://www.w3.org/1999/xlink">
    <!-- Generator: Sketch 53.2 (72643) - https://sketchapp.com -->
    <title>Group 55</title>
    <desc>Created with Sketch.</desc>
    <defs>
        <polygon id="path-1" points="0 0.0331079812 85.966892 0.0331079812 85.966892 86 0 86"></polygon>
        <polygon id="path-3" points="0.244770659 0.14736 66.7224114 0.14736 66.7224114 16 0.244770659 16"></polygon>
    </defs>
    <g id="Page-1" stroke="none" stroke-width="1" fill="none" fill-rule="evenodd">
        <g id="HP3---Desktop---Extra-large---12-col" transform="translate(-1099.000000, -4685.000000)">
            <g id="Group-16" transform="translate(1012.000000, 4685.000000)">
                <g id="Group-55" transform="translate(87.000000, 0.000000)">
                    <g id="Group-3" transform="translate(0.299065, 0.000000)">
                        <mask id="mask-2" fill="white">
                            <use xlink:href="#path-1"></use>
                        </mask>
                        <g id="Clip-2"></g>
                        <path d="M85.9670939,43.0162714 C85.9670939,66.7555014 66.7228779,86.0001211 42.9836479,86.0001211 C19.2444178,86.0001211 -0.000201877934,66.7555014 -0.000201877934,43.0162714 C-0.000201877934,19.2774451 19.2444178,0.0328253521 42.9836479,0.0328253521 C66.7228779,0.0328253521 85.9670939,19.2774451 85.9670939,43.0162714" id="Fill-1" fill="#3D7DEB" mask="url(#mask-2)"></path>
                    </g>
                    <g id="Group-6" transform="translate(9.299065, 70.000000)">
                        <mask id="mask-4" fill="white">
                            <use xlink:href="#path-3"></use>
                        </mask>
                        <g id="Clip-5"></g>
                        <path d="M66.7224114,0.14736 L0.244770659,0.14736 C8.07414192,9.81256 20.0518964,16.00016 33.483591,16.00016 C46.9156868,16.00016 58.8926389,9.81256 66.7224114,0.14736" id="Fill-4" fill="#32325D" mask="url(#mask-4)"></path>
                    </g>
                    <polygon id="Fill-7" fill="#FFFFFF" points="50.2096443 73 43.2990654 81 59.8739157 81 66.2990654 73"></polygon>
                    <path d="M43.5479387,12.8390666 C43.5479387,12.8390666 55.4431776,16.0427839 55.2977426,23.7610648 C55.1527028,31.4793457 48.9879189,32.3962238 48.9879189,32.3962238 C48.9879189,32.3962238 52.4155214,50.1434296 32.1459142,47.7839859 C21.3659404,46.5290809 32.537166,41.534059 28.4614293,34.1006412 C26.1360502,29.8598318 27.8769229,18.6041709 32.537166,14.3812151 C37.1978043,10.1578626 43.5479387,12.8390666 43.5479387,12.8390666" id="Fill-9" fill="#FFFFFF"></path>
                    <path d="M45.2571038,43.7801302 C45.2571038,43.7801302 50.4038965,43.3038034 53.6365463,49.1046958 C56.8695974,54.9059968 57.2990654,55.8974592 57.2990654,55.8974592 C57.2990654,55.8974592 53.8051225,57.3464568 50.8273439,56.9996288 C50.8273439,56.9996288 51.5377723,62.1660997 49.6384801,66.6025569 C48.23127,69.8882315 47.7668827,69.9719767 47.7668827,69.9719767 C47.7668827,69.9719767 41.2590377,72.3965047 36.5372979,69.798767 C36.5372979,69.798767 35.8569724,64.4304904 32.0286867,57.8497455 C32.0286867,57.8497455 30.7170031,61.798846 30.1370206,64.9256088 C30.1370206,64.9256088 26.4219217,63.2588735 24.2990654,61.2265186 C24.2990654,61.2265186 25.98844,42.870779 39.3874402,43.0006863 L45.2571038,43.7801302 Z" id="Fill-11" fill="#FF656E"></path>
                    <path d="M52.0744261,25.655627 C52.0744261,25.655627 54.0908897,35.0628407 46.0408746,38.5272281 C44.7331178,39.2091725 43.4391695,39.0943352 41.7439593,38.5579038 C41.3244211,38.4249758 40.3679716,37.9518622 39.9431537,37.7516836 C38.2698748,36.964734 36.7878857,36.1128935 35.3164562,34.4025267 C35.3164562,34.4025267 34.244258,33.4857953 33.3328896,32.3621996 C32.5636686,31.4143992 31.8423717,30.4087869 32.660735,28.7739296 C33.89092,26.7166915 36.51943,28.7251631 36.51943,28.7251631 C36.51943,28.7251631 41.4531661,28.9037113 43.8010364,21 C43.8010364,21 49.2789943,25.1140829 52.0744261,25.655627" id="Fill-13" fill="#D47F40"></path>
                    <path d="M45.3909967,44.4807801 C45.3909967,44.4807801 44.8268804,43.9013835 45.9161345,38.9518447 C45.9161345,38.9518447 43.7187795,39.6123812 38.8229183,37 C38.8229183,37 39.6611685,42.4196614 38.2990654,43.7162702 C38.2990654,43.7162702 41.0335517,51.6100894 45.3909967,50.9621928 C47.4341514,50.0545667 45.3909967,44.4807801 45.3909967,44.4807801" id="Fill-15" fill="#BB6631"></path>
                    <path d="M51.476193,47.9498328 C51.476193,47.9498328 57.0481037,55.9665575 58.107088,50.7739108 C58.8307076,47.2256691 54.7663706,40.0814694 54.7663706,40.0814694 L60.5028293,38 C60.5028293,38 62.804935,43.8935537 63.6860507,46.7188347 C64.483717,49.2782682 64.8465063,53.2744008 62.5745678,56.2456372 C60.3026292,59.2172746 54.9132885,59.5849701 49.2990654,58.2958304 L51.476193,47.9498328 Z" id="Fill-17" fill="#FF656E"></path>
                    <path d="M48.2990654,34 L44.2990654,34 C44.2990654,34 44.4233466,36 46.2986944,36 C48.0979896,36 48.2990654,34 48.2990654,34" id="Fill-19" fill="#FFFFFF"></path>
                    <path d="M59.5029838,39.9028909 C59.7255783,40.0662651 60.0386583,40.0187463 60.2019847,39.7960867 C60.3653112,39.573427 60.3178062,39.2607079 60.0952118,39.0973336 C59.8726173,38.9335068 59.5595373,38.9814782 59.3962108,39.2036853 C59.232432,39.4263449 59.2808418,39.7395166 59.5029838,39.9028909" id="Fill-21" fill="#FFFFFF"></path>
                    <path d="M31.2990654,58 C31.2990654,58 38.480975,63.2722051 35.6298787,70 L31.2990654,58 Z" id="Fill-23" fill="#FF656E"></path>
                    <path d="M25.0112934,76 C23.0840935,73.3067418 20.0550547,68.9936312 24.9367788,60 C24.9367788,60 25.3472199,62.1334145 28.5330243,63.1329324 C28.5330243,63.1329324 24.4082545,71.824922 32.2990654,72.766385" id="Fill-25" fill="#BB6631"></path>
                    <path d="M31.1704059,58.7718641 C31.1704059,58.7718641 27.2981492,68.9035838 30.1310989,71.1489703 C32.9648468,73.3935544 40.2990654,73.1319872 40.2990654,73.1319872 L39.622558,79 C39.622558,79 33.2853397,78.8415352 30.365382,78.4058572 C27.7204175,78.0119016 23.364029,77.3387269 21.7288367,73.9407596 C20.0932452,70.5427922 23.4366687,57.8403316 26.532239,52 L31.1704059,58.7718641 Z" id="Fill-27" fill="#FF656E"></path>
                    <path d="M38.5680036,77.056711 C38.3231893,77.1843348 38.2281597,77.4861967 38.3557709,77.7310352 C38.483382,77.9758738 38.7856667,78.0709127 39.030481,77.943289 C39.2752954,77.8156652 39.3698725,77.5138033 39.2422613,77.2689648 C39.1146501,77.0241262 38.812818,76.9290873 38.5680036,77.056711" id="Fill-29" fill="#FFFFFF"></path>
                    <path d="M54.9378039,37.9444002 L50.8577302,36.4458316 C50.4071014,36.2807774 50.1836491,35.796003 50.3586867,35.3639382 L53.5271578,27.5386785 C53.7021954,27.1062289 54.2091011,26.8903889 54.6601438,27.055443 L58.7398037,28.5540116 C59.1908463,28.7190657 59.4142986,29.2038402 59.2396748,29.635905 L56.0707899,37.4611647 C55.8957523,37.8936143 55.3888466,38.1098391 54.9378039,37.9444002" id="Fill-31" fill="#FF656E"></path>
                    <polygon id="Fill-33" fill="#32325D" points="55.5618326 36 51.2990654 34.307878 54.0362982 27 58.2990654 28.692122"></polygon>
                    <path d="M53.3773383,36.7704652 C53.5252074,37.0027577 53.8347269,37.0696956 54.0675183,36.9206231 C54.3006822,36.7711888 54.3688435,36.4618273 54.2209744,36.2295348 C54.0723604,35.9972423 53.7635858,35.9303044 53.530422,36.0793769 C53.2976306,36.2288112 53.2290968,36.5378109 53.3773383,36.7704652" id="Fill-35" fill="#32325D"></path>
                    <path d="M60.8303999,29 C60.8025448,29 60.7746896,28.9980538 60.7464307,28.9931884 C60.5054228,28.9565353 60.3471731,28.7697021 60.3931947,28.5754085 C60.4880638,28.1748198 60.1594534,27.7862326 59.6604823,27.7093585 C59.4194744,27.6727055 59.2604172,27.4858722 59.3072462,27.2915786 C59.3528642,27.0979337 59.5837796,26.9659179 59.8272097,27.0077607 C60.3015552,27.0804181 60.7133274,27.2977415 60.9854201,27.6191855 C61.2571091,27.9406295 61.3572262,28.3279193 61.2663941,28.7093705 C61.2256206,28.8809587 61.0395157,29 60.8303999,29" id="Fill-37" fill="#32325D"></path>
                    <path d="M63.8064236,30 C63.7798846,30 63.7533456,29.997428 63.726422,29.9914265 C63.4968021,29.9429865 63.3456454,29.6956421 63.389877,29.4392956 C63.5625727,28.4301991 63.3714151,27.4048131 62.8529435,26.5547543 C62.3340872,25.7042669 61.5498412,25.129845 60.643285,24.9369421 C60.4140498,24.888502 60.2625084,24.6415863 60.30674,24.3852398 C60.350587,24.1288933 60.5717452,23.9552807 60.8021343,24.0101508 C61.9302332,24.2493504 62.9075599,24.9643772 63.5537263,26.0236284 C64.1995081,27.0828796 64.4368204,28.3586107 64.2218163,29.6163376 C64.1829693,29.842677 64.0056582,30 63.8064236,30" id="Fill-39" fill="#32325D"></path>
                    <path d="M65.7704771,30 C65.7444012,30 65.7183252,29.9975319 65.6918714,29.9913618 C65.4662577,29.9448801 65.3177381,29.707947 65.361198,29.4615529 C65.9734161,25.9602072 63.8552172,22.5674559 60.6372932,21.899436 C60.4116795,21.8525429 60.26316,21.6156098 60.3066199,21.3700384 C60.349324,21.1236444 60.5662457,20.9562281 60.793371,21.0101139 C64.4613886,21.7706858 66.8777604,25.6381262 66.1786225,29.6314373 C66.1404534,29.8490374 65.9662357,30 65.7704771,30" id="Fill-41" fill="#32325D"></path>
                    <path d="M51.9194004,25 C51.9194004,25 53.546117,31.564701 50.065171,35 L49.2990654,32.668681 L49.7352775,29.9576995 L51.9194004,25 Z" id="Fill-43" fill="#D47F40"></path>
                    <polygon id="Fill-45" fill="#32325D" points="33.2990654 70 50.2990654 70 47.4693996 71.1952013 42.6821135 72 38.3691551 71.6815779"></polygon>
                    <polygon id="Fill-47" fill="#32325D" points="61.2990654 74 56.9068356 79 55.2990654 79 59.8301669 74"></polygon>
                    <polygon id="Fill-49" fill="#32325D" points="57.2990654 74 52.9069464 79 51.2990654 79 55.830479 74"></polygon>
                    <path d="M60.2990654,37.8651307 C60.1033723,36.8445476 59.986511,36.1588308 59.9976029,36.0837056 C59.9976029,36.0837056 60.4773284,33.4918879 60.1041646,32.3941816 C59.9274862,31.5805922 59.946897,31.4223499 60.0154292,30.9012691 C60.0914881,30.3226456 59.4113159,29.5773881 58.8329516,29.0419216 C58.2545873,28.5068547 58.5413926,28.1132469 57.9519364,27.3540033 C57.2555224,26.4568972 56.9536638,27.5478102 56.9536638,27.5478102 C56.9536638,27.5478102 56.5179099,30.3682002 56.399464,31.2681036 C56.2810182,32.1684066 56.0009473,32.3274481 55.5533091,31.6788943 C55.1052749,31.0299409 54.2702119,30.1983694 53.6161849,30.241926 C52.9617618,30.285083 53.523092,30.9488217 53.523092,30.9488217 C53.523092,30.9488217 54.5546404,32.6027738 54.9274081,33.3879915 C55.1270626,33.807973 56.4525468,35.7252627 57.1263808,39 L60.2990654,37.8651307 Z" id="Fill-51" fill="#BB6631"></path>
                    <path d="M40.2990654,77.908559 C41.3604056,77.9285119 43.5989725,77.7646436 43.6720136,77.7935116 C43.6720136,77.7935116 46.1578593,78.8679952 47.3346779,78.7185609 C48.1846478,78.7126175 48.338891,78.7682308 48.844466,78.9550237 C49.4059439,79.162194 50.2963108,78.6137022 50.9544968,78.125918 C51.6130909,77.6377093 51.9448362,78.02488 52.8290824,77.574879 C53.8745086,77.0425192 52.8494849,76.4855368 52.8494849,76.4855368 C52.8494849,76.4855368 50.1253375,75.4063833 49.2512926,75.0837411 C48.3776558,74.7610988 48.2789075,74.4325131 49.0227842,74.1060501 C49.7666609,73.7791625 50.7757706,73.0880288 50.8724786,72.3922253 C50.9691867,71.6964218 50.1857291,72.1383568 50.1857291,72.1383568 C50.1857291,72.1383568 48.3131838,72.8549623 47.4489321,73.0727458 C46.9870186,73.1894913 44.2302271,73.2964727 40.8148417,73.2807651 L40.2990654,77.908559 Z" id="Fill-53" fill="#BB6631"></path>
                </g>
            </g>
        </g>
    </g>
</svg>