<?xml version="1.0" encoding="UTF-8"?>
<svg width="111px" height="110px" viewBox="0 0 111 110" version="1.1" xmlns="http://www.w3.org/2000/svg" xmlns:xlink="http://www.w3.org/1999/xlink">
    <!-- Generator: Sketch 53.2 (72643) - https://sketchapp.com -->
    <title>Group 39</title>
    <desc>Created with Sketch.</desc>
    <defs>
        <polygon id="path-1" points="0.00020657277 0.0423474178 109.957653 0.0423474178 109.957653 110 0.00020657277 110"></polygon>
        <polygon id="path-3" points="0.317836527 0.19341 86.6395491 0.19341 86.6395491 21 0.317836527 21"></polygon>
    </defs>
    <g id="Page-1" stroke="none" stroke-width="1" fill="none" fill-rule="evenodd">
        <g id="HP3---Desktop---Extra-large---12-col" transform="translate(-745.000000, -4647.000000)">
            <g id="Group-17" transform="translate(643.000000, 4647.000000)">
                <g id="Group-39" transform="translate(102.000000, 0.000000)">
                    <g id="Group-3" transform="translate(0.740654, 0.000000)">
                        <mask id="mask-2" fill="white">
                            <use xlink:href="#path-1"></use>
                        </mask>
                        <g id="Clip-2"></g>
                        <path d="M109.957859,55.0208122 C109.957859,85.3849437 85.3431643,110.000155 54.9790329,110.000155 C24.6149014,110.000155 0.00020657277,85.3849437 0.00020657277,55.0208122 C0.00020657277,24.6571972 24.6149014,0.0419859155 54.9790329,0.0419859155 C85.3431643,0.0419859155 109.957859,24.6571972 109.957859,55.0208122" id="Fill-1" fill="#3D7DEB" mask="url(#mask-2)"></path>
                    </g>
                    <g id="Group-6" transform="translate(11.740654, 89.000000)">
                        <mask id="mask-4" fill="white">
                            <use xlink:href="#path-3"></use>
                        </mask>
                        <g id="Clip-5"></g>
                        <path d="M86.6395491,0.19341 L0.317836527,0.19341 C10.4848545,12.878985 26.0375371,21.00021 43.4786928,21.00021 C60.9203695,21.00021 76.4725311,12.878985 86.6395491,0.19341" id="Fill-4" fill="#32325D" mask="url(#mask-4)"></path>
                    </g>
                    <path d="M33.7406542,94 L36.1807914,51.2686972 C36.1807914,51.2686972 48.7658686,50 52.568613,50 C54.6408257,50 60.8476868,51.2229645 63.6130384,52.2018499 C67.6823352,53.6437147 69.9480298,56.9554819 71.2231585,59.3957584 L87.7406542,92.7631616 L74.8622666,93.9881814 L70.5691276,89.0886159 L72.7524895,85.7830149 L64.9226439,67.3429719 L64.9226439,94 L33.7406542,94 Z" id="Fill-7" fill="#333DC8"></path>
                    <path d="M65.015164,59 L78.7406542,84.6963681 L74.4669432,89.8841055 C74.4669432,89.8841055 72.7293979,90.2460039 71.0782722,89.690777 L70.3187951,88.7915621 L72.4757305,85.4022544 L64.7406542,66.4981981 L65.015164,59 Z" id="Fill-9" fill="#2432B2"></path>
                    <path d="M45.0135634,94 L79.7406542,94 L79.7406542,91 L45.0135634,91 C44.3105668,91 43.7406542,91.6720639 43.7406542,92.5003074 C43.7406542,93.3279361 44.3105668,94 45.0135634,94" id="Fill-11" fill="#FFFFFF"></path>
                    <path d="M54.7406542,94 L87.7056911,94 C89.1637255,94 90.4393771,92.996267 90.8133901,91.5547804 L96.6311425,69.1326471 C97.1731531,67.0458285 95.6349731,65 93.5234434,65 L64.7383105,65 C63.2802762,65 62.0051383,66.003733 61.6311253,67.4452196 L54.7406542,94 Z" id="Fill-13" fill="#FF656E"></path>
                    <path d="M73.8276582,81.500248 C73.4332403,82.8808414 74.4170375,84 76.0256106,84 C77.6341837,84 79.2584885,82.8808414 79.6534682,81.500248 C80.0484479,80.1196547 79.0640888,79 77.4555157,79 C75.8469427,79 74.2226379,80.1196547 73.8276582,81.500248" id="Fill-15" fill="#FFC700"></path>
                    <path d="M61.8666743,18.478303 C61.8666743,18.478303 66.4594947,40.4191692 54.58804,44.7866544 C53.4603642,45.2432551 47.7592206,45.1680257 44.2611244,42.5057405 C44.2611244,42.5057405 33.8102483,35.1363929 36.0572311,30.5061272 C37.6022933,27.8407075 42.6266223,32.0849 42.6266223,32.0849 C42.6266223,32.0849 40.8723438,28.2952185 43.8217703,18.0540927 C43.8217703,18.0540927 58.3549791,17.7766842 61.8666743,18.478303" id="Fill-17" fill="#FFB256"></path>
                    <path d="M54.7406542,52.821635 C54.7406542,52.821635 51.1221815,51.5659504 53.4956885,45.4679449 C53.4956885,45.4679449 49.678518,45.7817368 44.5320388,43 C44.5320388,43 45.772865,48.3985649 42.7406542,50.2337565 C42.7406542,50.2337565 45.4437718,58.7485283 50.5793847,57.9467305 C52.986008,56.8244204 54.7406542,52.821635 54.7406542,52.821635" id="Fill-19" fill="#FF8658"></path>
                    <path d="M57.7406542,39 L52.7406542,39 C52.7406542,39 52.8965774,41 55.2406542,41 C57.4896559,41 57.7406542,39 57.7406542,39" id="Fill-21" fill="#FFFFFF"></path>
                    <path d="M42.8055294,36 C42.8055294,36 36.84566,34.3258661 35.1930336,27.9870821 C33.5414591,21.6488121 36.9434921,19.3218842 36.9434921,19.3218842 C36.9434921,19.3218842 34.07375,13.7273882 41.7214865,10.8813091 C49.3692229,8.03523007 54.3476153,13.3305717 59.8293698,10.4279514 C65.3111242,7.52533113 71.8585123,20.2388799 60.4563369,22.9893529 C49.0531095,25.7408539 45.3586321,19.4272565 44.3298169,21.7212877 C44.3298169,21.7212877 45.0304211,27.2463922 44.101542,32.1392632 C43.7785908,33.8385836 43.4114574,35.3107112 42.8055294,36" id="Fill-23" fill="#BB6631"></path>
                    <path d="M36.9802616,58 C36.9802616,58 38.5840922,68.7168924 38.7249087,74.7828646 C38.8651977,80.8493491 38.0218813,97 38.0218813,97 L28.7406542,89.8576252 L29.8656035,73.0624647 L36.9802616,58 Z" id="Fill-25" fill="#2432B2"></path>
                    <path d="M38.1506866,50 L33.5047237,87.3014125 L41.1042215,87.6056969 L43.7406542,97.6872019 L28.2631512,98.9496696 C22.814002,99.7697786 22.4901197,90.3317517 22.8379932,87.8141109 L27.070889,57.1694408 C27.4203272,53.3460864 29.7250544,51.1197041 32.9925621,50.3704558 L38.1506866,50 Z" id="Fill-27" fill="#333DC8"></path>
                    <polygon id="Fill-29" fill="#FFC700" points="51.2016606 61.7935306 51.7406542 57 49.7368383 57.1106905 47.7406542 57.3515715 48.8544152 62"></polygon>
                    <polygon id="Fill-31" fill="#FFFFFF" points="51.8797853 61 55.7406542 82.790589 52.4676697 86 48.7406542 83.2809157 49.245014 61.1844489"></polygon>
                    <path d="M54.1230509,59 C55.6000626,55.4689114 55.9688192,53.2330034 55.616937,49.7632315 L52.3919298,49 C52.335847,52.2734509 52.5031027,54.7013769 49.7406542,57.1734079 L54.1230509,59 Z" id="Fill-33" fill="#2432B2"></path>
                    <path d="M44.2406542,60 C41.4177509,57.4606249 39.6870423,53.4838677 38.7406542,50.2976706 L42.2150801,50 C43.5013224,52.8564147 46.0125572,55.5899893 49.7406542,56.7062541 L44.2406542,60 Z" id="Fill-35" fill="#2432B2"></path>
                    <path d="M64.1077296,94.3944359 C64.1077296,94.3944359 60.5333794,93.3519032 59.3895874,93.0464444 C58.2457953,92.7415224 58.0851445,92.3388965 58.9939393,91.8412509 C59.9027341,91.3436053 61.1083949,90.3552929 61.1562262,89.4679054 C61.2035376,88.5805179 60.2573096,89.2279404 60.2573096,89.2279404 C60.2573096,89.2279404 57.9582876,90.3477772 56.8846828,90.7224877 C56.0907871,91.000568 51.2681439,93.7250032 43.5922594,92.5890614 C43.3120303,92.5477251 43.0260823,92.5069257 42.7406542,92.4666631 C43.1810141,94.2065438 43.8059405,96.6775931 44.0814904,97.7662936 C48.3010433,97.3384365 52.3916596,97.0458616 52.6006616,97.1070608 C52.6006616,97.1070608 55.8724268,98.1721405 57.3494783,97.8473556 C58.4277623,97.7410624 58.6294856,97.7936721 59.2913253,97.9697539 C60.0264716,98.1656985 61.096957,97.3717202 61.8799346,96.6808142 C62.6629123,95.9893713 63.1256282,96.4392386 64.1997529,95.7692691 C65.4683223,94.9774382 64.1077296,94.3944359 64.1077296,94.3944359" id="Fill-37" fill="#FFB256"></path>
                </g>
            </g>
        </g>
    </g>
</svg>