<svg width="194px" height="325px" viewBox="0 0 194 325" version="1.1" xmlns="http://www.w3.org/2000/svg" xmlns:xlink="http://www.w3.org/1999/xlink">
    <defs>
        <polygon id="path-1" points="0.855895238 0.87624 24.8399048 0.87624 24.8399048 11.92584 0.855895238 11.92584"></polygon>
    </defs>
    <g id="abo-chef-1" class="abo-scene" stroke="none" stroke-width="1" fill="none" fill-rule="evenodd" style="visibility: visible;">
        <g id="ABO_Business_Chefd'Entreprise_01b---Desktop---Extra-large---12-col" transform="translate(-1406.000000, -433.000000)">
            <g id="Group" transform="translate(1406.000000, 433.000000)">
                <path id="abo-chef-1-shadow" d="M208.614234,324.613885 C208.614234,324.613885 286.115195,324.508148 333.868664,307.271483 C378.727281,291.080253 390.781442,277.249385 355.2813,268.056822 C333.176215,262.332415 333.671814,275.330404 329.204479,263.077992 C324.741776,250.82558 240.983304,234.494452 156.847343,238.664805 C95.2865914,241.715979 43.2580064,260.429701 43.2580064,260.429701 C43.2580064,260.429701 -21.1373838,268.441269 7.209001,290.069521 C27.7693935,305.754843 86.1087546,326.153841 208.614234,324.613885" fill="#4A6AE2" style="opacity: 1;"></path>
                <g id="abo-chef-1-lady" transform="matrix(1,0,0,1,0,0)" data-svg-origin="19.85454559326172 0" style="opacity: 1;">
                    <path d="M94.0764926,256.034997 L94.0764926,248.55214 L100.591898,248 L101.854545,257.807284 C101.854545,257.807284 100.025341,260.476946 96.4080926,259.924806 C92.790844,259.371484 94.0764926,256.034997 94.0764926,256.034997" id="Fill-1" fill="#FFB256"></path>
                    <path d="M131.411823,257.688943 C131.411823,257.688943 131.533474,253.755772 130.854545,249.320778 L134.610664,245 L136.232677,245 L138.854545,255.867558 L138.854545,261 C138.854545,261 132.10813,258.690158 131.411823,257.688943" id="Fill-3" fill="#FFB256"></path>
                    <path d="M91.7764744,1.67826513 C91.7764744,1.67826513 67.5601694,8.08570671 67.8572568,23.521926 C68.1518889,38.9581454 80.7019896,40.7924753 80.7019896,40.7924753 C80.7019896,40.7924753 73.7241189,76.2864568 114.987347,71.5680517 C136.93253,69.0581072 114.191841,59.067971 122.489418,44.2008177 C127.221946,35.719312 123.678995,13.2073012 114.191841,4.76211882 C104.703459,-3.68427432 91.7764744,1.67826513 91.7764744,1.67826513" id="Fill-5" fill="#3F148A"></path>
                    <path d="M89.8224216,65.5321674 C89.8224216,65.5321674 79.5779891,64.5967114 73.1429155,75.9923775 C66.7090608,87.3880436 65.8545455,89.3348695 65.8545455,89.3348695 C65.8545455,89.3348695 72.6358136,95.7202137 78.5625664,95.0418857 C78.5625664,95.0418857 78.0542456,101.36356 81.1017327,110.361814 C84.1504387,119.361293 84.8269808,116.981022 84.8269808,116.981022 C84.8269808,116.981022 97.7800198,121.742787 107.177251,116.640634 C107.177251,116.640634 108.532773,106.095939 116.15271,93.1697493 C116.15271,93.1697493 128.173218,63.7469647 101.505268,64.0016439 L89.8224216,65.5321674 Z" id="Fill-7" fill="#4A6AE2"></path>
                    <g id="Group-11" transform="translate(129.854545, 255.000000)">
                        <mask id="mask-2" fill="white">
                            <use xlink:href="#path-1"></use>
                        </mask>
                        <g id="Clip-10"></g>
                        <path d="M1.12084762,6.27264 C1.12084762,6.27264 15.438181,11.66904 23.1267524,11.92584 C23.1267524,11.92584 32.1425619,11.15424 8.80941905,0.87624 C8.80941905,0.87624 5.09760952,4.21704 0.855895238,2.67504 L1.12084762,6.27264 Z" id="Fill-9" fill="#FF656E" mask="url(#mask-2)"></path>
                    </g>
                    <path d="M102.854545,262.541532 C102.854545,262.541532 87.1478071,266.692275 79.5549126,267 C79.5549126,267 70.6461934,266.304067 93.6119786,256 C93.6119786,256 97.3038693,259.267807 101.482468,257.717345 L102.854545,262.541532 Z" id="Fill-12" fill="#FF656E"></path>
                    <path d="M75.291269,27.5323575 C75.291269,27.5323575 71.3712183,46.7936666 87.0200995,53.8870283 C92.6712852,56.990758 101.346235,53.4213459 107.867204,45.442082 C107.867204,45.442082 116.507218,41.2312817 113.029287,33.9155229 C110.639188,29.7047225 105.528907,33.8172258 105.528907,33.8172258 C105.528907,33.8172258 95.9396004,34.1821537 91.3750422,18 C91.3750422,18 80.7244064,26.4240581 75.291269,27.5323575" id="Fill-14" fill="#FFB256"></path>
                    <path d="M89.5571135,65.9982686 C89.5571135,65.9982686 90.6759555,64.8716574 88.633119,55.0014015 C88.633119,55.0014015 95.5986156,55.7247653 101.251648,52 C101.251648,52 100.300693,61.8888673 102.854545,64.473373 C102.854545,64.473373 97.7272341,80.2173927 89.5571135,78.9245195 C85.7263354,77.1154896 89.5571135,65.9982686 89.5571135,65.9982686" id="Fill-16" fill="#FF9836"></path>
                    <path d="M83.9176813,116 C83.9176813,116 68.430335,140.936209 75.8819666,178.057489 C83.3348176,215.178768 91.6973261,248.2501 91.6973261,248.2501 C91.6973261,248.2501 99.1952942,249.937375 103.854545,248.2501 C103.854545,248.2501 98.7477817,211.12882 102.051082,178.057489 C102.051082,178.057489 90.381615,145.599601 94.3263096,118.04198 C94.3263096,118.04198 88.6610697,117.687276 83.9176813,116" id="Fill-18" fill="#FFC700"></path>
                    <path d="M107.648842,115 C107.648842,115 125.014172,132.815575 126.024743,167.394952 C127.036528,201.975547 140.854545,246.329237 140.854545,246.329237 C140.854545,246.329237 132.706889,249.641778 127.315557,248.888596 C127.315557,248.888596 111.702046,200.283932 101.843819,177.598263 C101.843819,177.598263 88.7658352,141.740426 94.1583803,117.385079 C94.1583803,117.385079 102.25751,118.385666 107.648842,115" id="Fill-20" fill="#E2AC00"></path>
                    <path d="M67.6284386,86.6852576 C67.6284386,86.6852576 61.3955163,100.24697 54.7896945,97.2626313 C48.1826501,94.2770624 41.6183975,79 41.6183975,79 L31.8545455,85.6646554 C31.8545455,85.6646554 38.0202236,96.8605386 41.5034711,101.683191 C44.6578335,106.050877 49.8955423,113.223374 57.4305561,112.994661 C64.9667925,112.764718 74.1303376,106.195975 78.8545455,95.3566874 L67.6284386,86.6852576 Z" id="Fill-22" fill="#4A6AE2"></path>
                    <path d="M83.4630647,116.023854 C83.4630647,116.023854 82.4838097,114.042318 81.8545455,112.235839 C81.8545455,112.235839 99.4415822,115.392923 107.854545,112 L107.022718,115.68833 C107.022718,115.68833 100.134372,122.9106 83.4630647,116.023854" id="Fill-24" fill="#3F148A"></path>
                    <path d="M82.8545455,44 L91.8545455,44 C91.8545455,44 91.5755646,48 87.3539085,48 C83.3055009,48 82.8545455,44 82.8545455,44" id="Fill-26" fill="#FFFFFF"></path>
                    <path d="M115.854545,93 C115.854545,93 102.615253,98.6827757 108.251519,112 L115.854545,93 Z" id="Fill-28" fill="#333DC8"></path>
                    <path d="M32.8588549,84 C31.625047,82.0502262 29.9384316,78.4928293 29.8039466,78.3884855 C29.8039466,78.3884855 25.0463834,74.9148063 23.9914777,72.5694966 C23.0426795,70.9824996 22.7675403,70.7568257 21.8582239,70.0167124 C20.8477353,69.1940947 20.8403324,66.9543421 20.9834541,65.2120427 C21.1265759,63.4673167 20.0482278,63.2634822 19.8693256,61.1402064 C19.6558769,58.6311011 21.8249111,59.9414656 21.8249111,59.9414656 C21.8249111,59.9414656 26.8576134,63.8531462 28.4294846,65.1307516 C30.0013558,66.4107835 30.7095616,66.2433481 30.4640338,64.5131816 C30.2160384,62.7830152 30.334484,60.1707794 31.4893281,59.2498843 C32.6429385,58.327776 32.7243698,60.2544971 32.7243698,60.2544971 C32.7243698,60.2544971 33.5362154,64.498622 34.1148713,66.3355589 C34.424557,67.3195456 35.9717521,73.0026448 39.8545455,79.3312199 L32.8588549,84 Z" id="Fill-30" fill="#FF9836"></path>
                    <path d="M112.139304,80.1744593 C112.139304,80.1744593 124.736329,80.907972 125.091769,88.0582105 C125.448414,95.2072407 115.006919,108.826167 115.006919,108.826167 L124.170036,115 C124.170036,115 132.541545,103.097034 135.188668,97.8742301 C137.58638,93.1456711 141.354041,87.4177464 136.491144,79.2898937 C131.38245,70.7499688 115.431037,63.3568372 103.854545,64.0444299 L112.139304,80.1744593 Z" id="Fill-32" fill="#4A6AE2"></path>
                    <path d="M122.854545,114.434369 C121.684251,116.443906 121.748935,117.710868 121.716593,117.878226 C121.716593,117.878226 120.983512,122.567971 119.386785,124.602302 C118.41174,126.187864 118.33388,126.539936 118.084728,127.697806 C117.806828,128.983364 115.842363,130.030901 114.245637,130.71397 C112.64891,131.395799 112.947173,132.454494 111.158791,133.602447 C109.046991,134.958667 109.241042,132.409865 109.241042,132.409865 C109.241042,132.409865 110.456854,126.088689 110.888078,124.08783 C111.318104,122.085732 110.858132,121.530351 109.447071,122.554335 C108.033615,123.579558 105.684642,124.68784 104.364617,124.082872 C103.044592,123.479143 104.703607,122.512185 104.703607,122.512185 C104.703607,122.512185 108.075539,119.813381 109.436291,118.439805 C110.163382,117.707149 112.626151,116.415393 116.477221,110 L122.854545,114.434369 Z" id="Fill-34" fill="#FF9836"></path>
                    <g id="abo-chef-1-clac" transform="matrix(1,0,0,1,0,0)" data-svg-origin="0.854545533657074 39" style="opacity: 1;">
                        <polygon id="Fill-36" fill="#FFFFFF" points="17.8545455 53.1581262 15.4372923 55 6.85454545 43.8431166 9.27304716 42"></polygon>
                        <polygon id="Fill-38" fill="#FFFFFF" points="14.8545455 59.9962963 14.6418129 63 0.854545455 62.0037037 1.06727797 59"></polygon>
                        <polygon id="Fill-40" fill="#FFFFFF" points="25.6773154 53 22.8545455 52.5164892 25.0306018 39 27.8545455 39.4847226"></polygon>
                    </g>
                </g>
            </g>
        </g>
    </g>
</svg>