<svg width="360px" height="285px" viewBox="0 0 360 285" version="1.1" xmlns="http://www.w3.org/2000/svg" xmlns:xlink="http://www.w3.org/1999/xlink">
    <!-- Generator: Sketch 53.2 (72643) - https://sketchapp.com -->
    <title>Group 97</title>
    <desc>Created with Sketch.</desc>
    <defs>
        <polygon id="path-1" points="0 284 359.735921 284 359.735921 0.687516667 0 0.687516667"></polygon>
        <path d="M69.2206579,14.69 C69.2206579,14.69 65.9948684,16.4166364 60.9442105,16.1625455 L60.9442105,16.1625455 C59.3242105,16.0833636 54.3434211,15.1473636 52.7814474,15.2903636 L52.7814474,15.2903636 C47.7722368,15.7489091 45.2569737,14.534 39.2317105,13.8379091 L39.2317105,13.8379091 C36.0651316,13.4715455 33.2431579,13.0271818 29.1528947,12.7577273 L29.1528947,12.7577273 C27.4334211,12.6442727 26.9478947,12.2152727 25.4143421,12.0427273 L25.4143421,12.0427273 C23.5823684,11.8347273 20.7378947,11.8749091 19.1510526,11.6208182 L19.1510526,11.6208182 C10.2967105,10.1967273 5.09684211,8.33890909 1.67447368,9.54554545 L1.67447368,9.54554545 C1.67447368,9.54554545 -4.31644737,32.981 6.78671053,46.0046364 L6.78671053,46.0046364 C6.78671053,46.0046364 14.0447368,37.427 30.3655263,43.5677273 L30.3655263,43.5677273 C46.6851316,49.7096364 88.3421053,63.4376364 88.3421053,24.0346364 L88.3421053,24.0346364 C88.3421053,24.0346364 87.1436842,9.34818182 89.8211842,0.538909091 L89.8211842,0.538909091" id="path-3"></path>
        <path d="M69.2206579,14.69 C69.2206579,14.69 65.9948684,16.4166364 60.9442105,16.1625455 L60.9442105,16.1625455 C59.3242105,16.0833636 54.3434211,15.1473636 52.7814474,15.2903636 L52.7814474,15.2903636 C47.7722368,15.7489091 45.2569737,14.534 39.2317105,13.8379091 L39.2317105,13.8379091 C36.0651316,13.4715455 33.2431579,13.0271818 29.1528947,12.7577273 L29.1528947,12.7577273 C27.4334211,12.6442727 26.9478947,12.2152727 25.4143421,12.0427273 L25.4143421,12.0427273 C23.5823684,11.8347273 20.7378947,11.8749091 19.1510526,11.6208182 L19.1510526,11.6208182 C10.2967105,10.1967273 5.09684211,8.33890909 1.67447368,9.54554545 L1.67447368,9.54554545 C1.67447368,9.54554545 -4.31644737,32.981 6.78671053,46.0046364 L6.78671053,46.0046364 C6.78671053,46.0046364 14.0447368,37.427 30.3655263,43.5677273 L30.3655263,43.5677273 C46.6851316,49.7096364 88.3421053,63.4376364 88.3421053,24.0346364 L88.3421053,24.0346364 C88.3421053,24.0346364 87.1436842,9.34818182 89.8211842,0.538909091 L89.8211842,0.538909091" id="path-5"></path>
        <path d="M69.2206579,14.69 C69.2206579,14.69 65.9948684,16.4166364 60.9442105,16.1625455 L60.9442105,16.1625455 C59.3242105,16.0833636 54.3434211,15.1473636 52.7814474,15.2903636 L52.7814474,15.2903636 C47.7722368,15.7489091 45.2569737,14.534 39.2317105,13.8379091 L39.2317105,13.8379091 C36.0651316,13.4715455 33.2431579,13.0271818 29.1528947,12.7577273 L29.1528947,12.7577273 C27.4334211,12.6442727 26.9478947,12.2152727 25.4143421,12.0427273 L25.4143421,12.0427273 C23.5823684,11.8347273 20.7378947,11.8749091 19.1510526,11.6208182 L19.1510526,11.6208182 C10.2967105,10.1967273 5.09684211,8.33890909 1.67447368,9.54554545 L1.67447368,9.54554545 C1.67447368,9.54554545 -4.31644737,32.981 6.78671053,46.0046364 L6.78671053,46.0046364 C6.78671053,46.0046364 14.0447368,37.427 30.3655263,43.5677273 L30.3655263,43.5677273 C46.6851316,49.7096364 88.3421053,63.4376364 88.3421053,24.0346364 L88.3421053,24.0346364 C88.3421053,24.0346364 87.1436842,9.34818182 89.8211842,0.538909091 L89.8211842,0.538909091" id="path-7"></path>
        <path d="M69.2206579,14.69 C69.2206579,14.69 65.9948684,16.4166364 60.9442105,16.1625455 L60.9442105,16.1625455 C59.3242105,16.0833636 54.3434211,15.1473636 52.7814474,15.2903636 L52.7814474,15.2903636 C47.7722368,15.7489091 45.2569737,14.534 39.2317105,13.8379091 L39.2317105,13.8379091 C36.0651316,13.4715455 33.2431579,13.0271818 29.1528947,12.7577273 L29.1528947,12.7577273 C27.4334211,12.6442727 26.9478947,12.2152727 25.4143421,12.0427273 L25.4143421,12.0427273 C23.5823684,11.8347273 20.7378947,11.8749091 19.1510526,11.6208182 L19.1510526,11.6208182 C10.2967105,10.1967273 5.09684211,8.33890909 1.67447368,9.54554545 L1.67447368,9.54554545 C1.67447368,9.54554545 -4.31644737,32.981 6.78671053,46.0046364 L6.78671053,46.0046364 C6.78671053,46.0046364 14.0447368,37.427 30.3655263,43.5677273 L30.3655263,43.5677273 C46.6851316,49.7096364 88.3421053,63.4376364 88.3421053,24.0346364 L88.3421053,24.0346364 C88.3421053,24.0346364 87.1436842,9.34818182 89.8211842,0.538909091 L89.8211842,0.538909091" id="path-9"></path>
        <path d="M69.2206579,14.69 C69.2206579,14.69 65.9948684,16.4166364 60.9442105,16.1625455 L60.9442105,16.1625455 C59.3242105,16.0833636 54.3434211,15.1473636 52.7814474,15.2903636 L52.7814474,15.2903636 C47.7722368,15.7489091 45.2569737,14.534 39.2317105,13.8379091 L39.2317105,13.8379091 C36.0651316,13.4715455 33.2431579,13.0271818 29.1528947,12.7577273 L29.1528947,12.7577273 C27.4334211,12.6442727 26.9478947,12.2152727 25.4143421,12.0427273 L25.4143421,12.0427273 C23.5823684,11.8347273 20.7378947,11.8749091 19.1510526,11.6208182 L19.1510526,11.6208182 C10.2967105,10.1967273 5.09684211,8.33890909 1.67447368,9.54554545 L1.67447368,9.54554545 C1.67447368,9.54554545 -4.31644737,32.981 6.78671053,46.0046364 L6.78671053,46.0046364 C6.78671053,46.0046364 14.0447368,37.427 30.3655263,43.5677273 L30.3655263,43.5677273 C46.6851316,49.7096364 88.3421053,63.4376364 88.3421053,24.0346364 L88.3421053,24.0346364 C88.3421053,24.0346364 87.1436842,9.34818182 89.8211842,0.538909091 L89.8211842,0.538909091" id="path-11"></path>
        <path d="M69.2206579,14.69 C69.2206579,14.69 65.9948684,16.4166364 60.9442105,16.1625455 L60.9442105,16.1625455 C59.3242105,16.0833636 54.3434211,15.1473636 52.7814474,15.2903636 L52.7814474,15.2903636 C47.7722368,15.7489091 45.2569737,14.534 39.2317105,13.8379091 L39.2317105,13.8379091 C36.0651316,13.4715455 33.2431579,13.0271818 29.1528947,12.7577273 L29.1528947,12.7577273 C27.4334211,12.6442727 26.9478947,12.2152727 25.4143421,12.0427273 L25.4143421,12.0427273 C23.5823684,11.8347273 20.7378947,11.8749091 19.1510526,11.6208182 L19.1510526,11.6208182 C10.2967105,10.1967273 5.09684211,8.33890909 1.67447368,9.54554545 L1.67447368,9.54554545 C1.67447368,9.54554545 -4.31644737,32.981 6.78671053,46.0046364 L6.78671053,46.0046364 C6.78671053,46.0046364 14.0447368,37.427 30.3655263,43.5677273 L30.3655263,43.5677273 C46.6851316,49.7096364 88.3421053,63.4376364 88.3421053,24.0346364 L88.3421053,24.0346364 C88.3421053,24.0346364 87.1436842,9.34818182 89.8211842,0.538909091 L89.8211842,0.538909091" id="path-13"></path>
        <polygon id="path-15" points="0 284 359.735921 284 359.735921 0.687516667 0 0.687516667"></polygon>
    </defs>
    <g id="Page-1" stroke="none" stroke-width="1" fill="none" fill-rule="evenodd">
        <g id="CONNEXION---Desktop---Extra-large---12-col" transform="translate(-1105.000000, -539.000000)">
            <g id="Group-97" transform="translate(1105.000000, 539.000000)">
                <g id="Group-50" transform="translate(0.000000, 0.197368)">
                    <path d="M150.797724,259.486422 C150.797724,259.486422 135.317724,261.338338 127.558776,261.605772 C127.558776,261.605772 118.461671,260.803472 142.006145,250.109688 C142.006145,250.109688 144.514303,252.489372 150.032724,251.980538 L150.797724,259.486422 Z" id="Fill-1" fill="#32325D"></path>
                    <path d="M62.7150789,259.734922 L66.3127105,259.734922 L64.7471842,251.843272 C64.7471842,251.843272 61.4231053,255.994405 62.7150789,259.734922" id="Fill-3" fill="#FFB98C"></path>
                    <polygon id="Fill-5" fill="#E2AC00" points="123.773684 173.37703 147.049342 173.37703 117.541184 261.74363 77.2638158 261.74363 57.6911842 199.021047 73.9421053 173.37703"></polygon>
                    <path d="M63.7466447,154.179103 C63.7466447,154.179103 58.7788816,158.397687 59.5438816,117.312353 L54.0100658,163.232787 L60.6984868,164.49422 L63.7466447,154.179103 Z" id="Fill-7" fill="#3D7DEB"></path>
                    <path d="M58.8375,245.655148 C58.8375,245.655148 46.8592105,259.164082 41.4828947,266.892432 C41.4828947,266.892432 36.3173684,276.688065 62.7146053,259.734448 C62.7146053,259.734448 61.9365789,255.614082 66.0848684,250.326948 L58.8375,245.655148 Z" id="Fill-9" fill="#FF8658"></path>
                    <mask id="mask-2" fill="white">
                        <use xlink:href="#path-1"></use>
                    </mask>
                    <g id="Clip-12"></g>
                    <polygon id="Fill-11" fill="#899AA7" mask="url(#mask-2)" points="39.2340789 257.681483 42.75 257.681483 42.75 203.62445 39.2340789 203.62445"></polygon>
                    <path d="M18.0909474,268.043697 C19.1129211,259.640847 33.1600263,256.103863 40.8123947,256.08848 L40.8846316,256.08848 C47.1633158,256.08848 56.0887105,257.71438 60.6929211,262.30453 C62.3200263,263.928063 63.2638421,265.789447 63.5243684,267.843713 C64.6801579,268.405797 65.4830526,269.579663 65.4830526,270.949963 C65.4830526,272.864597 63.9293684,274.415947 62.0145,274.415947 C60.0984474,274.415947 58.5447632,272.864597 58.5447632,270.949963 C58.5447632,269.654213 59.2659474,268.53833 60.3198947,267.943113 C60.0948947,266.71008 59.4779211,265.594197 58.4405526,264.559963 C55.1460789,261.273847 48.3037105,259.614813 42.6479211,259.324897 L42.6479211,267.921813 C43.7231842,268.511113 44.4609474,269.63883 44.4609474,270.949963 C44.4609474,272.864597 42.9072632,274.415947 40.9923947,274.415947 C39.0763421,274.415947 37.5238421,272.864597 37.5238421,270.949963 C37.5238421,269.58913 38.3172632,268.419997 39.4612105,267.854363 L39.4612105,259.313063 C32.7881842,259.675163 22.7543684,262.511613 21.3747632,267.78573 C22.5897632,268.32533 23.4388421,269.537063 23.4388421,270.949963 C23.4388421,272.864597 21.8863421,274.415947 19.9702895,274.415947 C18.0554211,274.415947 16.5017368,272.864597 16.5017368,270.949963 C16.5017368,269.729947 17.1364737,268.660213 18.0909474,268.043697" id="Fill-13" fill="#899AA7" mask="url(#mask-2)"></path>
                    <path d="M38.6804605,185.479572 L38.6804605,145.707738 C38.6804605,138.824288 33.0957237,133.243688 26.2071711,133.243688 L12.4726974,133.243688 C5.58414474,133.243688 0.000592105263,138.824288 0.000592105263,145.707738 L0.000592105263,190.171488 C0.000592105263,199.991972 8.04138158,208.026805 17.8691447,208.026805 L38.4400658,208.026805 L62.6441447,208.026805 C63.8058553,208.026805 64.7473026,207.086055 64.7473026,205.925205 C64.7473026,204.765538 63.8058553,203.824788 62.6441447,203.824788 L57.0392763,203.824788 C46.8988816,203.824788 38.6804605,195.612455 38.6804605,185.479572" id="Fill-14" fill="#A1E5DD" mask="url(#mask-2)"></path>
                    <path d="M64.6533947,154.234483 L64.6498421,154.287733 C64.3537895,154.234483 64.0541842,154.193067 63.7462895,154.178867 C60.0811579,154.017933 56.9797105,156.857933 56.8174737,160.52035 C56.6564211,164.18395 59.4973421,167.2831 63.1636579,167.444033 C63.3922105,167.454683 63.6172105,167.452317 63.8398421,167.440483 L63.8398421,167.444033 L109.314711,164.0597 L109.581158,158.618733 L64.6533947,154.234483 Z" id="Fill-15" fill="#3D7DEB" mask="url(#mask-2)"></path>
                    <path d="M102.541145,194.269135 C102.473645,193.150885 102.222592,192.051568 101.787987,191.050468 C101.204171,189.703835 103.352329,187.352552 102.412066,186.292285 C96.7373289,179.896368 60.0729868,178.971002 51.3015395,178.071668 C49.7146974,177.909552 48.1266711,177.746252 46.5362763,177.599518 C46.4048289,177.590052 46.27575,177.568752 46.1431184,177.565202 C40.2611447,177.446868 35.1110132,183.575352 34.6373289,191.252818 C34.1648289,198.930285 38.5487763,205.249285 44.43075,205.367618 C44.5633816,205.369985 44.6936447,205.352235 44.8262763,205.355785 C53.8144342,205.283602 62.8002237,205.209052 71.7883816,205.136868 C77.3387763,205.091902 82.8643026,205.809002 88.4218026,205.354602 C93.1408816,204.968835 99.6315395,204.116835 101.85075,198.611968 C102.400224,197.249952 102.629961,195.741202 102.541145,194.269135" id="Fill-16" fill="#3D7DEB" mask="url(#mask-2)"></path>
                    <path d="M98.2241053,183.954255 C86.4471316,179.530955 80.6871316,186.317372 78.1292368,195.733155 C73.3497632,213.326955 69.9948947,231.241438 68.0989737,249.295555 C69.0250263,249.758238 78.8634474,256.679555 82.3035789,253.701105 C85.0793684,246.491055 90.0305526,237.126155 92.8075263,229.914922 C96.7758158,219.605722 100.745289,209.295338 104.714763,198.986138 C106.437789,194.514322 106.820289,189.850805 102.411474,186.292522 C101.176342,185.296155 99.7541053,184.528172 98.2241053,183.954255" id="Fill-17" fill="#3D7DEB" mask="url(#mask-2)"></path>
                    <path d="M56.4436184,195.3565 C56.6271711,195.600267 56.8036184,195.851133 56.9670395,196.111467 C61.7323026,203.683617 48.9499342,205.522517 44.3409868,205.529617 C44.3386184,205.529617 28.1291447,205.554467 28.1291447,205.554467 C18.7407237,205.554467 11.2695395,199.594017 10.9746711,190.34035 L11.1665132,163.606483 C17.8513816,163.62305 24.53625,163.638433 31.2211184,163.655 C35.2261184,163.66565 39.6645395,163.130783 43.6328289,163.684583 C46.4713816,164.082183 46.1149342,163.439633 47.2884868,166.240583 C48.7604605,169.751533 47.9990132,175.3274 48.6408553,179.1472 C49.4579605,184.00715 51.0305921,188.8742 54.1640132,192.678617 C54.9088816,193.582683 55.7390132,194.424033 56.4436184,195.3565" id="Fill-18" fill="#32325D" mask="url(#mask-2)"></path>
                    <path d="M80.6552763,199.271677 C77.0126447,193.371577 52.2875132,183.153493 49.1398816,180.941843 C42.7510658,176.451093 34.7481711,174.400377 26.4764605,175.73636 C19.8093553,176.813193 11.2842237,178.652093 11.0000132,187.640693 C10.7608026,195.173793 12.2008026,201.780343 17.1614605,203.581377 C17.2751447,203.62161 17.3876447,203.645277 17.5001447,203.68551 L63.5304079,219.05346 C63.6275132,219.094877 63.7151447,219.14221 63.8169868,219.178893 C64.0585658,219.26646 64.3084342,219.339827 64.5725132,219.40136 C68.3998816,220.287677 73.4754079,218.401443 77.6485658,214.32486 C82.68975,209.40101 83.5459342,203.954127 80.6552763,199.271677" id="Fill-19" fill="#32325D" mask="url(#mask-2)"></path>
                    <path d="M56.5396579,110.506648 C56.1938684,110.092482 55.8291316,109.693698 55.4632105,109.299648 C54.7929474,108.580182 54.1072895,107.868998 53.3245263,107.277332 C48.9275526,103.954532 42.624,104.263382 37.4170263,104.094165 C31.6084737,103.906015 25.7750526,104.173448 20.3336053,106.409948 C14.3521579,108.867732 9.009,113.592782 6.54110526,119.647898 C3.94886842,126.007132 7.58439474,133.934282 8.29492105,140.549115 C9.65676316,153.219065 6.98873684,165.926882 7.61992105,178.652448 C13.779,178.367265 23.6126842,181.501915 29.7741316,181.180048 C37.3293947,180.784815 46.0037368,181.025032 53.2499211,178.283248 C53.9947895,169.030765 55.6515,156.083915 56.8226842,146.875215 C57.5876842,140.860332 57.9725526,134.684515 59.1212368,128.728798 C60.1443947,123.429832 60.5920263,116.297882 57.3804474,111.605965 C57.1187368,111.223748 56.8357105,110.860465 56.5396579,110.506648" id="Fill-20" fill="#333DC8" mask="url(#mask-2)"></path>
                    <path d="M5.77468421,161.777168 L19.0200789,161.777168 C19.0200789,161.777168 21.9273158,124.749485 21.9273158,124.748302 C22.1203421,122.292885 22.2115263,116.520585 20.9313947,114.415435 C19.0674474,111.345868 13.2849474,110.655985 10.9745526,112.832135 C9.45165789,114.266335 7.40297368,117.741785 6.54086842,119.646952 C5.55323684,121.829018 5.40521053,127.348085 5.43007895,129.751435 C5.44902632,131.429402 5.46560526,133.107368 5.48455263,134.786518 C5.526,138.677318 5.56744737,142.570485 5.61007895,146.461285 C5.66455263,151.566185 5.72021053,156.672268 5.77468421,161.777168" id="Fill-21" fill="#3D7DEB" mask="url(#mask-2)"></path>
                    <path d="M54.909,159.870345 L14.0880789,154.745328 L14.0797895,154.803312 C13.5800526,154.671962 13.0578158,154.591495 12.5166316,154.580845 C8.84794737,154.516945 5.82110526,157.435045 5.75597368,161.102195 C5.69084211,164.768162 8.61228947,167.791578 12.2809737,167.857845 C12.2916316,167.857845 12.3011053,167.856662 12.3105789,167.856662 L12.3093947,167.860212 L54.8912368,168.464895 C55.1801842,168.464895 59.3071579,167.616445 59.3225526,167.328895 L59.5428158,163.051145 C59.5629474,162.678395 55.2784737,159.933062 54.909,159.870345" id="Fill-22" fill="#3D7DEB" mask="url(#mask-2)"></path>
                    <path d="M71.9217237,159.754852 L140.525408,157.226068 C141.710803,157.183468 142.703171,156.319635 142.910408,155.152868 L149.976592,115.408252 C150.25725,113.829685 149.009092,112.395485 147.404487,112.453468 L78.8019868,114.982252 C77.6177763,115.026035 76.6230395,115.889868 76.4158026,117.056635 L69.3508026,156.800068 C69.0701447,158.378635 70.3183026,159.814018 71.9217237,159.754852" id="Fill-23" fill="#899AA7" mask="url(#mask-2)"></path>
                    <polygon id="Fill-24" fill="#718089" mask="url(#mask-2)" points="98.3735526 173.377267 123.773684 173.377267 123.773684 169.570483 98.3735526 169.570483"></polygon>
                    <path d="M108.595184,169.703372 L113.885053,169.703372 L112.478211,152.889388 C112.364526,151.525005 111.221763,150.475388 109.851632,150.475388 C108.309789,150.475388 107.095974,151.792438 107.225053,153.328405 L108.595184,169.703372 Z" id="Fill-25" fill="#718089" mask="url(#mask-2)"></path>
                    <path d="M81.2739079,200.399512 C85.6412763,208.586995 83.4433816,219.833395 83.8673289,228.962812 C84.0129868,232.073795 84.3729868,263.692462 84.3729868,263.692462 C78.8237763,264.596528 73.2129868,265.149145 67.69575,266.201128 C62.8061447,244.075162 59.4465395,221.611945 57.6915395,199.020928 C56.69325,186.169928 77.4702237,193.271112 81.2739079,200.399512" id="Fill-26" fill="#32325D" mask="url(#mask-2)"></path>
                    <path d="M36.1651974,46.1953217 C36.1651974,46.1953217 17.0626974,45.3788217 13.1773026,62.0070217 C9.29190789,78.6375883 19.6525658,88.9964883 31.6320395,91.9962383 L56.8474342,63.5110383 C56.8474342,63.5110383 70.7654605,50.1429217 59.3721711,41.847755 C48.1209868,34.4862383 36.1651974,46.1953217 36.1651974,46.1953217" id="Fill-27" fill="#FF656E" mask="url(#mask-2)"></path>
                    <path d="M55.2675789,59.5539717 C55.2675789,59.5539717 62.9578421,76.580955 60.3679737,88.029705 C57.7769211,99.4808217 39.7271842,99.9020883 39.7271842,99.9020883 C39.7271842,99.9020883 42.0328421,103.566872 43.6516579,108.475338 C43.6516579,108.475338 30.0521842,116.417872 28.3753421,104.389288 C28.3753421,104.389288 32.9274474,97.721205 31.6319211,91.9962383 C31.6319211,91.9962383 20.6235,85.725755 26.1288947,77.819905 C30.3363947,72.640455 32.9274474,77.819905 32.9274474,77.819905 C32.9274474,77.819905 44.9069211,72.9126217 43.9358684,56.0098883 C43.9358684,56.0098883 51.3833684,60.0994883 55.2675789,59.5539717" id="Fill-28" fill="#FFB98C" mask="url(#mask-2)"></path>
                    <path d="M37.2938684,73.83716 C37.2938684,73.83716 34.4659737,85.5213933 37.3637368,89.60981 C40.2603158,93.69941 47.979,95.2815267 54.5442632,90.1233767 C58.2804474,87.1863433 60.9082105,88.5069433 60.9425526,91.39901 C60.9828158,94.9288933 60.2557105,107.240293 44.8005789,106.46166 C34.9787368,105.234543 32.1413684,90.1553267 32.9265,77.8190767 C32.9265,77.8190767 36.1984737,75.5636433 37.2938684,73.83716" id="Fill-29" fill="#FF656E" mask="url(#mask-2)"></path>
                    <path d="M80.7742895,264.234783 L82.3575789,270.05205 C82.3575789,270.05205 77.5840263,273.994917 72.6186316,272.322867 L69.9115263,265.805067 L80.7742895,264.234783 Z" id="Fill-30" fill="#FFB98C" mask="url(#mask-2)"></path>
                    <polygon id="Fill-31" fill="#FFC700" mask="url(#mask-2)" points="123.773684 173.37703 95.0743421 261.74363 117.541184 261.74363 147.049342 173.37703"></polygon>
                    <path d="M60.4623553,87.60619 L52.3114342,87.60619 C52.3114342,87.60619 52.5648553,91.2709733 56.3874868,91.2709733 C60.0526184,91.2709733 60.4623553,87.60619 60.4623553,87.60619" id="Fill-32" fill="#FFFFFF" mask="url(#mask-2)"></path>
                    <path d="M28.2203289,86.633135 C28.2203289,87.5360183 28.8136184,88.266135 29.5454605,88.266135 C30.2761184,88.266135 30.8694079,87.5360183 30.8694079,86.633135 C30.8694079,85.731435 30.2761184,85.0013183 29.5454605,85.0013183 C28.8136184,85.0013183 28.2203289,85.731435 28.2203289,86.633135" id="Fill-33" fill="#32325D" mask="url(#mask-2)"></path>
                    <path d="M29.5456974,86.633135 C29.5456974,86.633135 30.4918816,99.832035 24.5874079,102.874385 C18.6829342,105.915552 21.5522763,115.158568 27.0943816,118.479002 C32.6353026,121.800618 47.1193816,130.272102 47.6487237,141.744518 C48.17925,153.216935 57.5404342,159.012902 79.2647763,154.173068" id="Stroke-34" stroke="#3F148A" stroke-width="1.052" mask="url(#mask-2)"></path>
                    <path d="M77.697,154.173305 C77.697,155.038322 78.3992368,155.740038 79.2648947,155.740038 C80.1317368,155.740038 80.8327895,155.038322 80.8327895,154.173305 C80.8327895,153.308288 80.1317368,152.606572 79.2648947,152.606572 C78.3992368,152.606572 77.697,153.308288 77.697,154.173305" id="Fill-35" fill="#718089" mask="url(#mask-2)"></path>
                    <path d="M72.6189868,280.940137 C72.6189868,280.940137 90.4733289,283.676003 99.8866184,284.000237 C99.8866184,284.000237 110.923461,283.027537 82.3579342,270.052287 C82.3579342,270.052287 79.3145132,272.938437 72.6189868,272.323103 L72.6189868,280.940137 Z" id="Fill-36" fill="#FF8658" mask="url(#mask-2)"></path>
                    <path d="M54.8917105,168.46454 C57.0753947,168.416023 61.4214474,168.424307 61.5742105,168.474007 C61.5742105,168.474007 66.7705263,170.389823 69.1768421,169.99814 C70.9235526,169.91649 71.2456579,170.013523 72.2996053,170.33894 C73.4707895,170.703407 75.2565789,169.544923 76.5722368,168.527257 C77.8855263,167.508407 78.5996053,168.245623 80.3806579,167.283573 C82.4873684,166.14639 80.3356579,165.132273 80.3356579,165.132273 C80.3356579,165.132273 74.6502632,163.225923 72.8277632,162.662657 C71.0052632,162.097023 70.7767105,161.455657 72.2794737,160.749207 C73.7834211,160.04394 75.8013158,158.594357 75.9446053,157.212223 C76.0878947,155.831273 74.5128947,156.768473 74.5128947,156.768473 C74.5128947,156.768473 70.7210526,158.338757 68.9625,158.84049 C68.0210526,159.11029 61.9318421,159.61794 54.9094737,159.86999 L54.8917105,168.46454 Z" id="Fill-37" fill="#FFB98C" mask="url(#mask-2)"></path>
                    <path d="M215.743145,212.373898 C225.279592,205.635998 230.203539,192.895048 231.256303,180.898415 C232.500908,166.697232 229.771303,152.369432 231.040776,138.171798 C233.25525,113.409365 252.083013,98.7490483 275.549329,94.189665 C290.026303,91.3756983 305.544197,92.1637983 318.793145,98.6389983 C332.042092,105.113015 342.633671,117.791248 344.488145,132.411332 C345.362092,139.312532 344.333013,146.293015 344.129329,153.246282 C343.711303,167.487698 346.826961,181.820232 353.122224,194.602598 C355.072618,198.565582 357.340382,202.425615 358.498539,206.686798 C362.363803,220.927032 356.680776,236.671282 348.32025,248.218248 C340.285382,259.316732 328.668276,269.513515 315.322224,273.268232 C302.191697,276.961415 288.390908,277.402798 274.751171,277.586215 C252.032092,277.892698 218.523671,279.699648 196.208408,275.419532 C188.602224,273.961665 182.179066,271.064865 175.393539,267.332632 C168.608013,263.601582 167.708013,254.883965 166.076171,247.317732 C164.322355,239.189415 166.483539,232.226682 168.174592,228.262515 C169.71525,224.648615 173.668145,230.592498 176.728145,228.126432 C180.554329,225.043848 184.52025,222.000315 189.107882,220.237148 C195.795118,217.665765 203.325513,217.998282 210.017487,215.438732 C212.083934,214.647082 213.991697,213.611665 215.743145,212.373898" id="Fill-38" fill="#00AB97" mask="url(#mask-2)"></path>
                    <path d="M300.618829,236.01394 C294.542645,238.653957 287.871987,238.89654 281.756724,241.348407 C275.08725,244.02274 267.633829,244.311473 260.514355,245.040407 C243.847776,246.74559 227.082908,247.49464 210.331066,247.282823 C198.782645,247.13609 186.542645,247.26744 175.11975,245.56699 C167.210408,244.390757 163.486066,237.50494 166.901329,230.45464 C170.823434,222.35709 177.460934,221.499173 185.675803,218.12549 C194.196197,214.62519 203.633171,213.846557 211.909618,210.266973 C221.579882,206.086257 231.841066,204.320723 242.296461,206.345407 C248.409355,207.52874 254.238039,209.86819 260.283434,211.358007 C266.330013,212.847823 272.866855,213.444223 278.665934,211.175773 C282.462513,209.689507 285.728566,207.05659 289.535803,205.599907 C297.06975,202.713757 308.665539,205.04729 311.530145,213.296307 C314.943039,223.122707 309.893566,231.98469 300.618829,236.01394" id="Fill-39" fill="#16C4AB" mask="url(#mask-2)"></path>
                    <path d="M196.274132,270.12376 C196.274132,270.12376 175.634526,269.945077 167.997553,268.55111 C167.997553,268.55111 158.066763,266.628193 183.354395,261.204977 C183.354395,261.204977 186.461763,261.780077 192.397026,260.174293 L196.274132,270.12376 Z" id="Fill-40" fill="#32325D" mask="url(#mask-2)"></path>
                    <path d="M190.799526,204.41752 C190.799526,204.41752 177.496105,228.215537 181.871763,239.94947 C186.400184,252.09402 192.397026,260.17382 192.397026,260.17382 C192.397026,260.17382 187.235053,262.53457 182.151237,261.46602 C182.151237,261.46602 165.791368,248.775953 167.555842,217.952487 C167.555842,217.952487 175.030579,209.285753 186.639395,208.15922 L188.827816,211.611003 L190.799526,204.41752 Z" id="Fill-41" fill="#BB6631" mask="url(#mask-2)"></path>
                    <path d="M190.339224,222.380165 C190.339224,222.380165 197.59725,213.791532 213.918039,219.940132 C230.237645,226.091098 271.894618,239.835515 271.894618,200.381998 C271.894618,200.381998 270.696197,185.676715 273.373697,176.854965 L252.773171,191.025382 C252.773171,191.025382 249.547382,192.754232 244.496724,192.500998 C242.875539,192.420532 237.895934,191.483332 236.335145,191.626515 C231.32475,192.084465 228.809487,190.869182 222.783039,190.172198 C219.617645,189.805365 216.795671,189.361615 212.706592,189.090632 C210.985934,188.977032 210.500408,188.547482 208.966855,188.374715 C207.136066,188.166448 204.290408,188.206682 202.703566,187.951082 C193.849224,186.526348 188.648171,184.666148 185.226987,185.873148 C185.226987,185.873148 179.236066,209.339832 190.339224,222.380165" id="Fill-42" fill="#FF656E" mask="url(#mask-2)"></path>
                    <path d="M239.250434,87.3901133 C239.250434,87.3901133 234.055303,100.926263 238.597934,110.285247 C238.597934,110.285247 241.469645,119.078597 250.580961,124.105397 C254.366882,126.195163 258.791092,129.170063 265.229645,128.15003 L287.285566,106.542363 C287.285566,106.542363 289.695434,94.7776633 283.273461,87.0244633 C276.852671,79.2724467 246.478855,69.7442467 239.250434,87.3901133" id="Fill-43" fill="#FFC700" mask="url(#mask-2)"></path>
                    <path d="M242.605303,90.76782 C242.605303,90.76782 233.017934,122.084737 245.968461,128.357587 C253.018066,131.771503 257.514513,129.02972 257.514513,129.02972 C257.514513,129.02972 261.067145,137.019587 257.321487,144.239103 C257.321487,144.239103 263.207013,150.653953 269.627803,140.227603 C269.627803,140.227603 266.150961,130.33612 267.220303,123.117787 L269.627803,116.70057 C269.627803,116.70057 273.373461,110.55197 271.233592,107.075337 C269.092539,103.60107 265.080434,105.204487 264.543987,107.87882 C264.543987,107.87882 249.830171,110.017103 242.605303,90.76782" id="Fill-44" fill="#D47F40" mask="url(#mask-2)"></path>
                    <polygon id="Fill-45" fill="#899AA7" mask="url(#mask-2)" points="244.497197 192.500998 202.693382 188.017348 189.096276 146.191248 195.18075 146.191248 205.683513 182.172865 244.497197 188.351048"></polygon>
                    <path d="M269.628158,140.227485 C269.628158,140.227485 280.063421,141.297218 279.526974,151.724752 C278.992895,162.149918 276.050132,168.032268 276.050132,168.032268 C276.050132,168.032268 269.628158,162.952218 260.799868,162.952218 C260.799868,162.952218 258.766579,192.275218 250.047237,191.982935 C250.047237,191.982935 252.386053,178.401818 251.316711,171.182302 C251.316711,171.182302 246.179605,165.849018 248.587105,158.363252 C250.995789,150.877485 257.320658,144.238985 257.320658,144.238985 C257.320658,144.238985 263.274868,150.127252 269.628158,140.227485" id="Fill-46" fill="#32325D" mask="url(#mask-2)"></path>
                    <path d="M184.295605,208.496825 C184.295605,208.496825 173.577316,209.587858 163.410868,222.629375 C153.243237,235.673258 150.032842,251.980775 150.032842,251.980775 C150.032842,251.980775 144.414947,252.783075 142.006263,250.109925 C142.006263,250.109925 141.375079,202.858242 184.450737,189.833292 C184.450737,189.833292 182.834289,198.326075 184.295605,208.496825" id="Fill-47" fill="#D47F40" mask="url(#mask-2)"></path>
                    <path d="M291.747671,128.357232 C291.747671,128.357232 277.205566,140.684015 264.906355,134.699898 C264.906355,134.699898 262.232408,126.366865 269.627803,116.700215 L287.285566,106.541298 C287.285566,106.541298 285.839645,126.657965 291.747671,128.357232" id="Fill-48" fill="#FFC700" mask="url(#mask-2)"></path>
                    <path d="M250.523526,119.608138 L242.372605,119.608138 C242.372605,119.608138 242.626026,123.272922 246.448658,123.272922 C250.113789,123.272922 250.523526,119.608138 250.523526,119.608138" id="Fill-49" fill="#FFFFFF" mask="url(#mask-2)"></path>
                </g>
                <g id="Group-69" transform="translate(184.000000, 177.197368)">
                    <g id="Group-53">
                        <mask id="mask-4" fill="white">
                            <use xlink:href="#path-3"></use>
                        </mask>
                        <g id="Clip-52"></g>
                        <path d="M50.8683553,47.7161455 C50.8683553,52.6726909 54.8946711,56.6920545 59.8624342,56.6920545 C64.8278289,56.6920545 68.8541447,52.6726909 68.8541447,47.7161455 C68.8541447,42.7596 64.8278289,38.7414182 59.8624342,38.7414182 C54.8946711,38.7414182 50.8683553,42.7596 50.8683553,47.7161455" id="Fill-51" fill="#ED474E" mask="url(#mask-4)"></path>
                    </g>
                    <g id="Group-56">
                        <mask id="mask-6" fill="white">
                            <use xlink:href="#path-5"></use>
                        </mask>
                        <g id="Clip-55"></g>
                        <path d="M65.0754474,28.0648727 C65.0754474,33.0214182 69.1017632,37.0396 74.0695263,37.0396 C79.0361053,37.0396 83.0612368,33.0214182 83.0612368,28.0648727 C83.0612368,23.1083273 79.0361053,19.0901455 74.0695263,19.0901455 C69.1017632,19.0901455 65.0754474,23.1083273 65.0754474,28.0648727" id="Fill-54" fill="#ED474E" mask="url(#mask-6)"></path>
                    </g>
                    <g id="Group-59">
                        <mask id="mask-8" fill="white">
                            <use xlink:href="#path-7"></use>
                        </mask>
                        <g id="Clip-58"></g>
                        <path d="M32.6831447,21.7219364 C32.6831447,26.6784818 36.7082763,30.6978455 41.6760395,30.6978455 C46.6426184,30.6978455 50.6689342,26.6784818 50.6689342,21.7219364 C50.6689342,16.7665727 46.6426184,12.7472091 41.6760395,12.7472091 C36.7082763,12.7472091 32.6831447,16.7665727 32.6831447,21.7219364" id="Fill-57" fill="#ED474E" mask="url(#mask-8)"></path>
                    </g>
                    <g id="Group-62">
                        <mask id="mask-10" fill="white">
                            <use xlink:href="#path-9"></use>
                        </mask>
                        <g id="Clip-61"></g>
                        <path d="M23.6894211,44.5896455 C23.6894211,49.5461909 27.7157368,53.5643727 32.6835,53.5643727 C37.6500789,53.5643727 41.6752105,49.5461909 41.6752105,44.5896455 C41.6752105,39.6331 37.6500789,35.6137364 32.6835,35.6137364 C27.7157368,35.6137364 23.6894211,39.6331 23.6894211,44.5896455" id="Fill-60" fill="#ED474E" mask="url(#mask-10)"></path>
                    </g>
                    <g id="Group-65">
                        <mask id="mask-12" fill="white">
                            <use xlink:href="#path-11"></use>
                        </mask>
                        <g id="Clip-64"></g>
                        <path d="M6.80980263,21.7219364 C6.80980263,26.6784818 10.8349342,30.6978455 15.8026974,30.6978455 C20.7692763,30.6978455 24.7955921,26.6784818 24.7955921,21.7219364 C24.7955921,16.7665727 20.7692763,12.7472091 15.8026974,12.7472091 C10.8349342,12.7472091 6.80980263,16.7665727 6.80980263,21.7219364" id="Fill-63" fill="#ED474E" mask="url(#mask-12)"></path>
                    </g>
                    <g id="Group-68">
                        <mask id="mask-14" fill="white">
                            <use xlink:href="#path-13"></use>
                        </mask>
                        <g id="Clip-67"></g>
                        <path d="M-11.3709079,37.0393636 C-11.3709079,41.9959091 -7.34459211,46.0152727 -2.37682895,46.0152727 C2.58975,46.0152727 6.61488158,41.9959091 6.61488158,37.0393636 C6.61488158,32.084 2.58975,28.0646364 -2.37682895,28.0646364 C-7.34459211,28.0646364 -11.3709079,32.084 -11.3709079,37.0393636" id="Fill-66" fill="#ED474E" mask="url(#mask-14)"></path>
                    </g>
                </g>
                <g id="Group-96" transform="translate(0.000000, 0.197368)">
                    <path d="M245.320579,204.709922 C245.320579,204.709922 263.742158,213.481972 276.049658,168.032505 C276.049658,168.032505 270.430579,162.418772 260.799395,162.952455 C260.799395,162.952455 256.518474,185.409755 252.772816,191.025855 C249.027158,196.639588 238.029395,193.825622 234.951632,190.446022 C233.319789,188.654455 227.088474,191.559538 229.228342,193.697822 C231.369395,195.837288 237.549789,203.159755 245.320579,204.709922" id="Fill-70" fill="#D47F40"></path>
                    <polygon id="Fill-72" fill="#32325D" points="272.848855 179.161992 255.542803 176.855675 256.422671 160.090208 267.373066 156.922425 274.260434 156.922425 277.687539 163.433125"></polygon>
                    <path d="M233.145474,197.474785 C231.401132,196.161285 227.867447,193.631318 227.714684,193.583985 C227.714684,193.583985 222.375079,192.108368 220.650868,190.385435 C219.280737,189.299135 218.963368,189.190268 217.916526,188.840002 C216.753632,188.451868 215.980342,186.469785 215.506658,184.877018 C215.035342,183.283068 214.025211,183.466485 213.140605,181.645335 C212.096132,179.492852 214.434947,179.923585 214.434947,179.923585 C214.434947,179.923585 220.164158,181.695035 221.972447,182.299718 C223.783105,182.904402 224.343237,182.517452 223.535605,181.067868 C222.727974,179.615918 221.935737,177.262268 222.626132,176.056452 C223.316526,174.851818 224.047184,176.532152 224.047184,176.532152 C224.047184,176.532152 226.210737,180.018252 227.344026,181.452452 C227.951526,182.219252 232.038237,188.199818 237.593368,192.501235 L233.145474,197.474785 Z" id="Fill-74" fill="#D47F40"></path>
                    <polygon id="Fill-76" fill="#BEF7F2" points="162.837592 17.8276267 162.15075 17.1850767 176.122066 2.29046 176.807724 2.93182667"></polygon>
                    <polygon id="Fill-78" fill="#BEF7F2" points="190.169289 17.8276267 176.199158 2.93182667 176.884816 2.29046 190.854947 17.1850767"></polygon>
                    <path d="M178.389592,2.61185333 C178.389592,3.67330333 177.527487,4.53477 176.464066,4.53477 C175.401829,4.53477 174.538539,3.67330333 174.538539,2.61185333 C174.538539,1.54922 175.401829,0.687753333 176.464066,0.687753333 C177.527487,0.687753333 178.389592,1.54922 178.389592,2.61185333" id="Fill-80" fill="#3D7DEB"></path>
                    <mask id="mask-16" fill="white">
                        <use xlink:href="#path-15"></use>
                    </mask>
                    <g id="Clip-83"></g>
                    <polygon id="Fill-82" fill="#32325D" mask="url(#mask-16)" points="142.162105 65.4312333 210.843947 65.4312333 210.843947 16.2306 142.162105 16.2306"></polygon>
                    <polygon id="Fill-84" fill="#FF656E" mask="url(#mask-16)" points="148.886053 58.7951 204.121184 58.7951 204.121184 22.8679167 148.886053 22.8679167"></polygon>
                    <polygon id="Fill-85" fill="#BEF7F2" mask="url(#mask-16)" points="185.163158 44.7489333 199.951579 44.7489333 199.951579 34.2859 185.163158 34.2859"></polygon>
                    <polygon id="Fill-86" fill="#BEF7F2" mask="url(#mask-16)" points="179.868553 35.0361333 185.163158 35.0361333 185.163158 34.2859 179.868553 34.2859"></polygon>
                    <path d="M188.076079,40.4889333 C187.550289,40.4889333 187.185553,40.0511 187.185553,39.5257 L187.185553,39.5174167 C187.185553,38.9908333 187.558579,38.5624667 188.076079,38.5624667 C188.382789,38.5624667 188.623184,38.6938167 188.860026,38.908 L189.288711,38.4133667 C189.0045,38.1341 188.658711,37.9400333 188.080816,37.9400333 C187.138184,37.9400333 186.479763,38.6535833 186.479763,39.5257 L186.479763,39.5339833 C186.479763,40.4143833 187.151211,41.1101833 188.053579,41.1101833 C188.645684,41.1101833 188.996211,40.9007333 189.312395,40.5623 L188.882526,40.1292 C188.642132,40.3493 188.426605,40.4889333 188.076079,40.4889333" id="Fill-87" fill="#32325D" mask="url(#mask-16)"></path>
                    <polygon id="Fill-88" fill="#32325D" mask="url(#mask-16)" points="190.521947 37.99281 189.846947 37.99281 189.846947 41.0588267 192.050763 41.0588267 192.050763 40.4446767 190.521947 40.4446767"></polygon>
                    <path d="M193.502132,39.7747917 L193.9095,38.7807917 L194.316868,39.7747917 L193.502132,39.7747917 Z M193.607526,37.9713917 L192.293053,41.0587083 L192.981079,41.0587083 L193.260553,40.3711917 L194.558447,40.3711917 L194.839105,41.0587083 L195.544895,41.0587083 L194.229237,37.9713917 L193.607526,37.9713917 Z" id="Fill-89" fill="#32325D" mask="url(#mask-16)"></path>
                    <path d="M198.080526,40.129555 C197.840132,40.349655 197.624605,40.4892883 197.274079,40.4892883 C196.748289,40.4892883 196.384737,40.051455 196.384737,39.5248717 L196.384737,39.5165883 C196.384737,38.9911883 196.757763,38.5628217 197.274079,38.5628217 C197.581974,38.5628217 197.822368,38.6941717 198.059211,38.908355 L198.489079,38.4137217 C198.203684,38.1332717 197.857895,37.939205 197.278816,37.939205 C196.336184,37.939205 195.680132,38.6539383 195.680132,39.5248717 L195.680132,39.5343383 C195.680132,40.413555 196.349211,41.1105383 197.252763,41.1105383 C197.844868,41.1105383 198.195395,40.899905 198.510395,40.562655 L198.080526,40.129555 Z" id="Fill-90" fill="#32325D" mask="url(#mask-16)"></path>
                    <path d="M182.067158,35.5048517 L180.940974,35.5048517 L180.940974,33.6292683 L182.067158,33.6292683 C182.241237,34.2434183 182.241237,34.891885 182.067158,35.5048517" id="Fill-91" fill="#32325D" mask="url(#mask-16)"></path>
                    <path d="M181.699342,37.5271683 L180.767368,37.5271683 L180.767368,35.974635 L181.699342,35.974635 C181.845,36.4811017 181.845,37.0195183 181.699342,37.5271683" id="Fill-92" fill="#32325D" mask="url(#mask-16)"></path>
                    <polygon id="Fill-93" fill="#32325D" mask="url(#mask-16)" points="165.001974 35.0361333 179.934868 35.0361333 179.934868 33.5356667 165.001974 33.5356667"></polygon>
                    <path d="M163.015697,39.9688583 C163.37925,39.4020417 164.016355,39.0671583 164.688987,39.0671583 L166.871487,39.0671583 C167.010039,39.0671583 167.593855,39.0920083 167.725303,39.1381583 C169.069382,39.6103083 168.840829,40.6185083 168.766224,41.2231917 C168.708197,41.7130917 168.341092,42.225475 167.032539,42.5532583 C165.580697,42.9153583 164.510171,42.576925 163.946487,42.282275 C163.385171,41.987625 162.81675,41.5320417 162.790697,40.6753083 C162.782408,40.425625 162.877145,40.1854083 163.015697,39.9688583 M155.793197,41.103675 C155.793197,41.103675 154.667013,44.078575 153.621355,46.7564583 C153.077803,48.1480583 153.041092,49.105375 153.131092,49.705325 C153.200961,50.166825 153.601224,50.507625 154.068987,50.507625 L159.091224,50.507625 L160.109645,50.2934417 C160.109645,50.2934417 161.820829,44.3318083 161.855171,44.1803417 C162.094382,43.0964083 163.166092,42.9260083 163.166092,42.9260083 C166.222539,43.837175 167.616355,43.2206583 168.420434,42.8455417 C169.224513,42.470425 169.680434,40.5948417 169.680434,40.5948417 C170.055829,39.4162417 170.318724,39.0671583 171.428329,39.0671583 L178.845039,39.0671583 L179.036882,38.2376417 L180.891355,38.2376417 C181.141224,38.2376417 181.343724,38.0352917 181.343724,37.7867917 L181.343724,33.6794417 C181.343724,33.4297583 181.141224,33.2285917 180.891355,33.2285917 L179.708329,33.2285917 L179.708329,33.343375 C179.708329,34.1231917 179.075961,34.7550917 178.295566,34.7550917 L166.230829,34.7550917 C165.959645,34.7550917 165.739382,34.5349917 165.739382,34.2640083 L165.739382,33.5232417 C165.739382,33.286575 165.547539,33.0936917 165.309513,33.0936917 L157.376487,33.0936917 C156.922934,33.0936917 156.517934,33.3741417 156.356882,33.7965917 C156.356882,33.7965917 154.774776,36.978575 154.55925,37.2460083 C154.346092,37.514625 153.727934,37.6755583 153.433066,37.727625 C153.138197,37.7820583 153.031618,37.8885583 153.058855,38.157175 C153.084908,38.4246083 153.407013,38.398575 153.407013,38.398575 C156.463461,38.451825 155.793197,41.103675 155.793197,41.103675" id="Fill-94" fill="#FFC700" mask="url(#mask-16)"></path>
                    <path d="M160.819579,42.2823933 C160.819579,41.87651 161.149974,41.54636 161.557342,41.54636 C161.963526,41.54636 162.293921,41.87651 162.293921,42.2823933 C162.293921,42.68946 161.963526,43.01961 161.557342,43.01961 C161.149974,43.01961 160.819579,42.68946 160.819579,42.2823933" id="Fill-95" fill="#32325D" mask="url(#mask-16)"></path>
                </g>
            </g>
        </g>
    </g>
</svg>