<svg viewBox="0 0 495 900" preserveAspectRatio="none" version="1.1" xmlns="http://www.w3.org/2000/svg" xmlns:xlink="http://www.w3.org/1999/xlink" style="
    color: #30c8b1;
">
    <!-- Generator: Sketch 52.6 (67491) - http://www.bohemiancoding.com/sketch -->
    <title>Path-7</title>
    <desc>Created with Sketch.</desc>
    <g id="Page-1" stroke="none" stroke-width="1" fill="none" fill-rule="evenodd">
        <g id="abo-bck-blue" fill="#3D7DEB">
            <path id="abo-step-path" d="M113.442445,0 C38.152293,246.666667 0.340024,431.666667 0.005639,555 C-0.492783,740 97.507217,714.5 145.980759,900 C145.980759,900 332.86176,900 494.50722,900 L494.50722,0" data-original="M113.4,0c0,253,27.9,431.7,27.6,555c5,188,5,157.2,5,345c0,0,186.9,0,348.5,0V0"></path>

            <path id="abo-step-0" style="opacity: 0;" d="M113.442445,0 C38.152293,246.666667 0.340024,431.666667 0.005639,555 C-0.492783,740 97.507217,714.5 145.980759,900 C145.980759,900 332.86176,900 494.50722,900 L494.50722,0"></path>

            <path id="abo-step-1" style="opacity: 0;" d="M113.442445,0 C38.152293,246.666667 0.340024,431.666667 0.005639,555 C-0.492783,740 97.507217,714.5 145.980759,900 C145.980759,900 332.86176,900 494.50722,900 L494.50722,0"></path>

            <path id="abo-step-2" style="opacity: 0;" d="M113.4,0C38.2,246.7,0.3,321.7,0,445c-0.5,185,97.5,269.5,146,455c0,0,186.9,0,348.5,0V0"></path>

            <path id="abo-step-3" style="opacity: 0;" class="st0" d="M113.4,0C38.2,246.7,0.3,211.7,0,335c-0.5,185,97.5,379.5,146,565c0,0,186.9,0,348.5,0V0"></path>

            <path id="abo-step-4" style="opacity: 0;" d="M113.4,0C7,106,0,175,0,265c-0.5,185,114,423,146,635c0,0,186.9,0,348.5,0V0"></path>
        </g>
    </g>
</svg>