<?xml version="1.0" encoding="UTF-8"?>
<svg width="88px" height="87px" viewBox="0 0 88 87" version="1.1" xmlns="http://www.w3.org/2000/svg" xmlns:xlink="http://www.w3.org/1999/xlink">
    <!-- Generator: Sketch 53.2 (72643) - https://sketchapp.com -->
    <title>Group 73</title>
    <desc>Created with Sketch.</desc>
    <defs>
        <path d="M0,43.5167465 C0,67.5320141 19.4679859,87 43.4832535,87 L43.4832535,87 C67.4981127,87 86.966507,67.5320141 86.966507,43.5167465 L86.966507,43.5167465 C86.966507,19.5014789 67.4981127,0.0334929577 43.4832535,0.0334929577 L43.4832535,0.0334929577 C19.4679859,0.0334929577 0,19.5014789 0,43.5167465" id="path-1"></path>
        <path d="M0,43.5167465 C0,67.5320141 19.4679859,87 43.4832535,87 L43.4832535,87 C67.4981127,87 86.966507,67.5320141 86.966507,43.5167465 L86.966507,43.5167465 C86.966507,19.5014789 67.4981127,0.0334929577 43.4832535,0.0334929577 L43.4832535,0.0334929577 C19.4679859,0.0334929577 0,19.5014789 0,43.5167465 L0,43.5167465 Z" id="path-3"></path>
        <path d="M0,43.5167465 C0,67.5320141 19.4679859,87 43.4832535,87 L43.4832535,87 C67.4981127,87 86.966507,67.5320141 86.966507,43.5167465 L86.966507,43.5167465 C86.966507,19.5014789 67.4981127,0.0334929577 43.4832535,0.0334929577 L43.4832535,0.0334929577 C19.4679859,0.0334929577 0,19.5014789 0,43.5167465" id="path-5"></path>
        <path d="M0,43.5167465 C0,67.5320141 19.4679859,87 43.4832535,87 L43.4832535,87 C67.4981127,87 86.966507,67.5320141 86.966507,43.5167465 L86.966507,43.5167465 C86.966507,19.5014789 67.4981127,0.0334929577 43.4832535,0.0334929577 L43.4832535,0.0334929577 C19.4679859,0.0334929577 0,19.5014789 0,43.5167465 L0,43.5167465 Z" id="path-7"></path>
        <path d="M0,43.5167465 C0,67.5320141 19.4679859,87 43.4832535,87 L43.4832535,87 C67.4981127,87 86.966507,67.5320141 86.966507,43.5167465 L86.966507,43.5167465 C86.966507,19.5014789 67.4981127,0.0334929577 43.4832535,0.0334929577 L43.4832535,0.0334929577 C19.4679859,0.0334929577 0,19.5014789 0,43.5167465 L0,43.5167465 Z" id="path-9"></path>
        <path d="M0,43.5167465 C0,67.5320141 19.4679859,87 43.4832535,87 L43.4832535,87 C67.4981127,87 86.966507,67.5320141 86.966507,43.5167465 L86.966507,43.5167465 C86.966507,19.5014789 67.4981127,0.0334929577 43.4832535,0.0334929577 L43.4832535,0.0334929577 C19.4679859,0.0334929577 0,19.5014789 0,43.5167465 L0,43.5167465 Z" id="path-11"></path>
        <path d="M0,43.5167465 C0,67.5320141 19.4679859,87 43.4832535,87 L43.4832535,87 C67.4981127,87 86.966507,67.5320141 86.966507,43.5167465 L86.966507,43.5167465 C86.966507,19.5014789 67.4981127,0.0334929577 43.4832535,0.0334929577 L43.4832535,0.0334929577 C19.4679859,0.0334929577 0,19.5014789 0,43.5167465" id="path-13"></path>
        <path d="M0,43.5167465 C0,67.5320141 19.4679859,87 43.4832535,87 L43.4832535,87 C67.4981127,87 86.966507,67.5320141 86.966507,43.5167465 L86.966507,43.5167465 C86.966507,19.5014789 67.4981127,0.0334929577 43.4832535,0.0334929577 L43.4832535,0.0334929577 C19.4679859,0.0334929577 0,19.5014789 0,43.5167465" id="path-15"></path>
        <path d="M0,43.5167465 C0,67.5320141 19.4679859,87 43.4832535,87 L43.4832535,87 C67.4981127,87 86.966507,67.5320141 86.966507,43.5167465 L86.966507,43.5167465 C86.966507,19.5014789 67.4981127,0.0334929577 43.4832535,0.0334929577 L43.4832535,0.0334929577 C19.4679859,0.0334929577 0,19.5014789 0,43.5167465" id="path-17"></path>
        <path d="M0,43.5167465 C0,67.5320141 19.4679859,87 43.4832535,87 L43.4832535,87 C67.4981127,87 86.966507,67.5320141 86.966507,43.5167465 L86.966507,43.5167465 C86.966507,19.5014789 67.4981127,0.0334929577 43.4832535,0.0334929577 L43.4832535,0.0334929577 C19.4679859,0.0334929577 0,19.5014789 0,43.5167465" id="path-19"></path>
        <path d="M0,43.5167465 C0,67.5320141 19.4679859,87 43.4832535,87 L43.4832535,87 C67.4981127,87 86.966507,67.5320141 86.966507,43.5167465 L86.966507,43.5167465 C86.966507,19.5014789 67.4981127,0.0334929577 43.4832535,0.0334929577 L43.4832535,0.0334929577 C19.4679859,0.0334929577 0,19.5014789 0,43.5167465" id="path-21"></path>
        <path d="M0,43.5167465 C0,67.5320141 19.4679859,87 43.4832535,87 L43.4832535,87 C67.4981127,87 86.966507,67.5320141 86.966507,43.5167465 L86.966507,43.5167465 C86.966507,19.5014789 67.4981127,0.0334929577 43.4832535,0.0334929577 L43.4832535,0.0334929577 C19.4679859,0.0334929577 0,19.5014789 0,43.5167465 L0,43.5167465 Z" id="path-23"></path>
        <path d="M0,43.5167465 C0,67.5320141 19.4679859,87 43.4832535,87 L43.4832535,87 C67.4981127,87 86.966507,67.5320141 86.966507,43.5167465 L86.966507,43.5167465 C86.966507,19.5014789 67.4981127,0.0334929577 43.4832535,0.0334929577 L43.4832535,0.0334929577 C19.4679859,0.0334929577 0,19.5014789 0,43.5167465" id="path-25"></path>
        <path d="M0,43.5167465 C0,67.5320141 19.4679859,87 43.4832535,87 L43.4832535,87 C67.4981127,87 86.966507,67.5320141 86.966507,43.5167465 L86.966507,43.5167465 C86.966507,19.5014789 67.4981127,0.0334929577 43.4832535,0.0334929577 L43.4832535,0.0334929577 C19.4679859,0.0334929577 0,19.5014789 0,43.5167465" id="path-27"></path>
        <path d="M0,43.5167465 C0,67.5320141 19.4679859,87 43.4832535,87 L43.4832535,87 C67.4981127,87 86.966507,67.5320141 86.966507,43.5167465 L86.966507,43.5167465 C86.966507,19.5014789 67.4981127,0.0334929577 43.4832535,0.0334929577 L43.4832535,0.0334929577 C19.4679859,0.0334929577 0,19.5014789 0,43.5167465" id="path-29"></path>
        <path d="M0,43.5167465 C0,67.5320141 19.4679859,87 43.4832535,87 L43.4832535,87 C67.4981127,87 86.966507,67.5320141 86.966507,43.5167465 L86.966507,43.5167465 C86.966507,19.5014789 67.4981127,0.0334929577 43.4832535,0.0334929577 L43.4832535,0.0334929577 C19.4679859,0.0334929577 0,19.5014789 0,43.5167465" id="path-31"></path>
        <path d="M0,43.5167465 C0,67.5320141 19.4679859,87 43.4832535,87 L43.4832535,87 C67.4981127,87 86.966507,67.5320141 86.966507,43.5167465 L86.966507,43.5167465 C86.966507,19.5014789 67.4981127,0.0334929577 43.4832535,0.0334929577 L43.4832535,0.0334929577 C19.4679859,0.0334929577 0,19.5014789 0,43.5167465" id="path-33"></path>
        <path d="M0,43.5167465 C0,67.5320141 19.4679859,87 43.4832535,87 L43.4832535,87 C67.4981127,87 86.966507,67.5320141 86.966507,43.5167465 L86.966507,43.5167465 C86.966507,19.5014789 67.4981127,0.0334929577 43.4832535,0.0334929577 L43.4832535,0.0334929577 C19.4679859,0.0334929577 0,19.5014789 0,43.5167465" id="path-35"></path>
        <path d="M0,43.5167465 C0,67.5320141 19.4679859,87 43.4832535,87 L43.4832535,87 C67.4981127,87 86.966507,67.5320141 86.966507,43.5167465 L86.966507,43.5167465 C86.966507,19.5014789 67.4981127,0.0334929577 43.4832535,0.0334929577 L43.4832535,0.0334929577 C19.4679859,0.0334929577 0,19.5014789 0,43.5167465" id="path-37"></path>
        <path d="M0,43.5167465 C0,67.5320141 19.4679859,87 43.4832535,87 L43.4832535,87 C67.4981127,87 86.966507,67.5320141 86.966507,43.5167465 L86.966507,43.5167465 C86.966507,19.5014789 67.4981127,0.0334929577 43.4832535,0.0334929577 L43.4832535,0.0334929577 C19.4679859,0.0334929577 0,19.5014789 0,43.5167465" id="path-39"></path>
        <path d="M0,43.5167465 C0,67.5320141 19.4679859,87 43.4832535,87 L43.4832535,87 C67.4981127,87 86.966507,67.5320141 86.966507,43.5167465 L86.966507,43.5167465 C86.966507,19.5014789 67.4981127,0.0334929577 43.4832535,0.0334929577 L43.4832535,0.0334929577 C19.4679859,0.0334929577 0,19.5014789 0,43.5167465 L0,43.5167465 Z" id="path-41"></path>
        <path d="M0,43.5167465 C0,67.5320141 19.4679859,87 43.4832535,87 L43.4832535,87 C67.4981127,87 86.966507,67.5320141 86.966507,43.5167465 L86.966507,43.5167465 C86.966507,19.5014789 67.4981127,0.0334929577 43.4832535,0.0334929577 L43.4832535,0.0334929577 C19.4679859,0.0334929577 0,19.5014789 0,43.5167465 L0,43.5167465 Z" id="path-43"></path>
    </defs>
    <g id="Page-1" stroke="none" stroke-width="1" fill="none" fill-rule="evenodd">
        <g id="HP3---Desktop---Extra-large---12-col" transform="translate(-413.000000, -4688.000000)">
            <g id="Group-19" transform="translate(327.000000, 4688.000000)">
                <g id="Group-73" transform="translate(86.000000, 0.000000)">
                    <g id="Group-70" transform="translate(0.530488, 0.000000)">
                        <g id="Group-3">
                            <mask id="mask-2" fill="white">
                                <use xlink:href="#path-1"></use>
                            </mask>
                            <g id="Clip-2"></g>
                            <path d="M86.9666704,43.5166239 C86.9666704,67.5318915 67.4982761,86.9998775 43.4834169,86.9998775 C19.4681493,86.9998775 0.000163380282,67.5318915 0.000163380282,43.5166239 C0.000163380282,19.5013563 19.4681493,0.0333704225 43.4834169,0.0333704225 C67.4982761,0.0333704225 86.9666704,19.5013563 86.9666704,43.5166239" id="Fill-1" fill="#00C8B1" mask="url(#mask-2)"></path>
                        </g>
                        <g id="Group-6">
                            <mask id="mask-4" fill="white">
                                <use xlink:href="#path-3"></use>
                            </mask>
                            <g id="Clip-5"></g>
                            <polygon id="Fill-4" fill="#FF656E" mask="url(#mask-4)" points="33.6618521 70.8122 50.7011901 70.8122 47.8653169 72.0130451 43.066838 72.821369 38.7437958 72.5015521"></polygon>
                        </g>
                        <g id="Group-9">
                            <mask id="mask-6" fill="white">
                                <use xlink:href="#path-5"></use>
                            </mask>
                            <g id="Clip-8"></g>
                            <path d="M52.7423817,54.899369 C52.7423817,54.899369 52.4315507,63.8129887 46.3260296,59.8951296 C40.2205085,55.9780873 35.8897056,53.0196789 35.8897056,53.0196789 C35.8897056,53.0196789 33.3532268,54.0322282 35.5960296,56.6454958 C38.8628183,60.4526648 47.5448465,66.1048056 49.5748465,66.4119606 C54.2744803,67.1230732 57.1458887,64.3419324 58.9471563,55.1546507 C58.9471563,55.1546507 55.5680437,56.0434394 52.7423817,54.899369" id="Fill-7" fill="#FF9836" mask="url(#mask-6)"></path>
                        </g>
                        <g id="Group-12">
                            <mask id="mask-8" fill="white">
                                <use xlink:href="#path-7"></use>
                            </mask>
                            <g id="Clip-11"></g>
                            <path d="M52.705662,51.3597352 C52.705662,51.3597352 52.3678732,60.3881296 49.0087746,60.3137915 C45.6500845,60.2394535 40.1000563,54.9377634 40.1000563,54.9377634 L37.1269437,59.5324254 C37.1269437,59.5324254 41.7730704,63.1741718 44.1277887,64.5927211 C46.2603099,65.8785239 50.3779014,68.2234394 53.5560563,66.7640451 C56.7342113,65.3046507 59.5247465,56.1512704 59.5945915,50.6931437 L52.705662,51.3597352 Z" id="Fill-10" fill="#333DC8" mask="url(#mask-8)"></path>
                        </g>
                        <g id="Group-15">
                            <mask id="mask-10" fill="white">
                                <use xlink:href="#path-9"></use>
                            </mask>
                            <g id="Clip-14"></g>
                            <path d="M55.9090592,42.4615958 C55.9090592,42.4615958 51.6893549,42.3778634 48.1493127,47.3062296 C45.2158197,51.3907366 44.3221296,58.3225535 44.3221296,58.3225535 C44.3221296,58.3225535 47.6934817,60.6229479 50.7944394,59.3779901 C50.7944394,59.3779901 50.4341859,59.0577648 51.8519183,63.2260042 C53.2700592,67.3946521 53.5853831,66.2918352 53.5853831,66.2918352 C53.5853831,66.2918352 59.6116648,68.4970606 63.9837211,66.1341732 C63.9837211,66.1341732 68.6894817,59.3869761 72.2344254,53.3999056 C72.2344254,53.3999056 73.7522282,41.6344831 61.3447211,41.7525254 L55.9090592,42.4615958 Z" id="Fill-13" fill="#3D7DEB" mask="url(#mask-10)"></path>
                        </g>
                        <g id="Group-18">
                            <mask id="mask-12" fill="white">
                                <use xlink:href="#path-11"></use>
                            </mask>
                            <g id="Clip-17"></g>
                            <path d="M66.0529324,59.3911423 C66.0529324,59.3911423 65.082862,64.6928324 65.923862,66.8800859 C66.8469606,69.2817761 68.537538,74.7607338 68.537538,74.7607338 C68.537538,74.7607338 66.449538,75.2541423 63.4053549,75.9158324 C60.3607634,76.5775225 53.7822563,76.3831 52.1737775,76.0931 C50.2311859,75.7426493 47.7016507,75.5813113 47.7016507,75.5813113 C47.7016507,75.5813113 50.6057352,56.6753535 52.061862,53.8958465 C53.5179887,51.115931 56.7978479,51.8094803 56.7978479,51.8094803 L66.0529324,59.3911423 Z" id="Fill-16" fill="#3D7DEB" mask="url(#mask-12)"></path>
                        </g>
                        <g id="Group-21">
                            <mask id="mask-14" fill="white">
                                <use xlink:href="#path-13"></use>
                            </mask>
                            <g id="Clip-20"></g>
                            <path d="M67.7000915,51.7566268 C67.7000915,51.7566268 62.7647817,52.2185845 62.2460493,60.5411761 C61.9854577,64.7241197 64.3038239,75.7269648 64.3038239,75.7269648 L69.3959789,76.3612887 C69.3959789,76.3612887 63.259007,57.8000634 67.7000915,51.7566268" id="Fill-19" fill="#333DC8" mask="url(#mask-14)"></path>
                        </g>
                        <g id="Group-24">
                            <mask id="mask-16" fill="white">
                                <use xlink:href="#path-15"></use>
                            </mask>
                            <g id="Clip-23"></g>
                            <path d="M59.6399704,13.0184268 C59.6399704,13.0184268 69.0322944,12.6161028 70.9422099,20.7985958 C72.8529423,28.9810887 67.7587451,34.0785535 61.8684775,35.5538775 L49.4711817,21.5383 C49.4711817,21.5383 42.628407,14.9606099 48.2294915,10.8793704 C53.7615479,7.25763803 59.6399704,13.0184268 59.6399704,13.0184268" id="Fill-22" fill="#BB6631" mask="url(#mask-16)"></path>
                        </g>
                        <g id="Group-27">
                            <mask id="mask-18" fill="white">
                                <use xlink:href="#path-17"></use>
                            </mask>
                            <g id="Clip-26"></g>
                            <path d="M50.2476056,19.5915423 C50.2476056,19.5915423 46.4665775,27.9692746 47.7401268,33.6030352 C49.0136761,39.2367958 57.8889014,39.4438803 57.8889014,39.4438803 C57.8889014,39.4438803 56.1415493,41.8725282 55.3454789,44.2868803 C55.3454789,44.2868803 62.6943239,49.3504437 64.0585493,42.0167113 C64.0585493,42.0167113 61.231662,38.3708803 61.8684366,35.5537958 C61.8684366,35.5537958 67.2812254,32.4687676 64.574831,28.5786831 C62.5052113,26.0303592 61.231662,28.5786831 61.231662,28.5786831 C61.231662,28.5786831 55.3418028,26.164331 55.8192817,17.8474577 C55.8192817,17.8474577 52.1579296,19.8594859 50.2476056,19.5915423" id="Fill-25" fill="#FFB256" mask="url(#mask-18)"></path>
                        </g>
                        <g id="Group-30">
                            <mask id="mask-20" fill="white">
                                <use xlink:href="#path-19"></use>
                            </mask>
                            <g id="Clip-29"></g>
                            <path d="M59.0849268,26.6193859 C59.0849268,26.6193859 60.4748845,32.3679211 59.0506169,34.3803577 C57.6263493,36.3923859 53.8310254,37.170893 50.6034479,34.6323718 C48.7666451,33.1876817 47.474307,33.8375268 47.457969,35.2601606 C47.4375465,36.996893 47.7953493,43.0542169 55.3941662,42.671907 C60.2232789,42.0678085 61.618138,34.6483014 61.2317437,28.5787239 C61.2317437,28.5787239 59.6232648,27.4685549 59.0849268,26.6193859" id="Fill-28" fill="#BB6631" mask="url(#mask-20)"></path>
                        </g>
                        <g id="Group-33">
                            <mask id="mask-22" fill="white">
                                <use xlink:href="#path-21"></use>
                            </mask>
                            <g id="Clip-32"></g>
                            <path d="M47.6934,33.3943169 L51.7011183,33.3943169 C51.7011183,33.3943169 51.5761324,35.1972183 49.6972592,35.1972183 C47.8947662,35.1972183 47.6934,33.3943169 47.6934,33.3943169" id="Fill-31" fill="#FFFFFF" mask="url(#mask-22)"></path>
                        </g>
                        <g id="Group-36">
                            <mask id="mask-24" fill="white">
                                <use xlink:href="#path-23"></use>
                            </mask>
                            <g id="Clip-35"></g>
                            <path d="M65.3325479,51.0087535 C65.3325479,51.0087535 66.9083507,59.9044014 63.6097028,60.5411761 C60.3110549,61.1779507 53.7664493,57.1673732 53.7664493,57.1673732 L51.8308014,62.2860775 C51.8308014,62.2860775 57.141069,64.8646268 59.7416746,65.7550493 C62.0980268,66.5609225 66.6179423,67.9839648 69.416238,65.886162 C72.2145338,63.7883592 73.0097873,54.2522606 71.9257592,48.9027817 L65.3325479,51.0087535 Z" id="Fill-34" fill="#3D7DEB" mask="url(#mask-24)"></path>
                        </g>
                        <g id="Group-39">
                            <mask id="mask-26" fill="white">
                                <use xlink:href="#path-25"></use>
                            </mask>
                            <g id="Clip-38"></g>
                            <path d="M77.3230268,70.8122 L9.64356197,70.8122 C17.6148859,80.6820028 29.8083648,86.9999183 43.4832944,86.9999183 C57.1582239,86.9999183 69.3517028,80.6820028 77.3230268,70.8122" id="Fill-37" fill="#32325D" mask="url(#mask-26)"></path>
                        </g>
                        <g id="Group-42">
                            <mask id="mask-28" fill="white">
                                <use xlink:href="#path-27"></use>
                            </mask>
                            <g id="Clip-41"></g>
                            <path d="M32.318662,70.8030507 L16.5847324,70.8030507 L16.5847324,74.3096 L32.318662,74.3096 C33.2870986,74.3096 34.0721408,73.5245577 34.0721408,72.5565296 C34.0721408,71.588093 33.2870986,70.8030507 32.318662,70.8030507" id="Fill-40" fill="#3D7DEB" mask="url(#mask-28)"></path>
                        </g>
                        <g id="Group-45">
                            <mask id="mask-30" fill="white">
                                <use xlink:href="#path-29"></use>
                            </mask>
                            <g id="Clip-44"></g>
                            <path d="M31.7123577,73.7001099 L16.584569,73.7001099 L16.584569,71.4127859 L31.7527944,71.4127859 C31.9365972,71.4127859 32.0852732,71.5618704 32.0852732,71.7452648 L32.0852732,73.3271944 C32.0852732,73.5330535 31.9182169,73.7001099 31.7123577,73.7001099" id="Fill-43" fill="#32325D" mask="url(#mask-30)"></path>
                        </g>
                        <g id="Group-48">
                            <mask id="mask-32" fill="white">
                                <use xlink:href="#path-31"></use>
                            </mask>
                            <g id="Clip-47"></g>
                            <path d="M34.5194352,67.2965014 L18.7850972,67.2965014 L18.7850972,70.8030507 L34.5194352,70.8030507 C35.4878718,70.8030507 36.2725056,70.0180085 36.2725056,69.0495718 C36.2725056,68.0815437 35.4878718,67.2965014 34.5194352,67.2965014" id="Fill-46" fill="#3D7DEB" mask="url(#mask-32)"></path>
                        </g>
                        <g id="Group-51">
                            <mask id="mask-34" fill="white">
                                <use xlink:href="#path-33"></use>
                            </mask>
                            <g id="Clip-50"></g>
                            <path d="M33.9129676,70.1931521 L18.7851789,70.1931521 L18.7851789,67.9062366 L33.9538127,67.9062366 C34.137207,67.9062366 34.2858831,68.0553211 34.2858831,68.2387155 L34.2858831,69.8202366 C34.2858831,70.0265042 34.1188268,70.1931521 33.9129676,70.1931521" id="Fill-49" fill="#333DC8" mask="url(#mask-34)"></path>
                        </g>
                        <g id="Group-54">
                            <mask id="mask-36" fill="white">
                                <use xlink:href="#path-35"></use>
                            </mask>
                            <g id="Clip-53"></g>
                            <path d="M32.4281268,63.7895845 L16.6937887,63.7895845 L16.6937887,67.2965423 L32.4281268,67.2965423 C33.3965634,67.2965423 34.1811972,66.5115 34.1811972,65.5430634 C34.1811972,64.5746268 33.3965634,63.7895845 32.4281268,63.7895845" id="Fill-52" fill="#FFB256" mask="url(#mask-36)"></path>
                        </g>
                        <g id="Group-57">
                            <mask id="mask-38" fill="white">
                                <use xlink:href="#path-37"></use>
                            </mask>
                            <g id="Clip-56"></g>
                            <path d="M31.8216592,66.6866437 L16.6938704,66.6866437 L16.6938704,64.3993197 L31.8625042,64.3993197 C32.0458986,64.3993197 32.1945746,64.5484042 32.1945746,64.7317986 L32.1945746,66.3137282 C32.1945746,66.5195873 32.0275183,66.6866437 31.8216592,66.6866437" id="Fill-55" fill="#FF8658" mask="url(#mask-38)"></path>
                        </g>
                        <g id="Group-60">
                            <mask id="mask-40" fill="white">
                                <use xlink:href="#path-39"></use>
                            </mask>
                            <g id="Clip-59"></g>
                            <path d="M23.8907718,33.7991732 C23.8907718,34.9322155 22.9717577,35.8512296 21.8387155,35.8512296 C20.7052648,35.8512296 19.7862507,34.9322155 19.7862507,33.7991732 C19.7862507,32.6657225 20.7052648,31.7471169 21.8387155,31.7471169 C22.9717577,31.7471169 23.8907718,32.6657225 23.8907718,33.7991732" id="Fill-58" fill="#FFFFFF" mask="url(#mask-40)"></path>
                        </g>
                        <g id="Group-63">
                            <mask id="mask-42" fill="white">
                                <use xlink:href="#path-41"></use>
                            </mask>
                            <g id="Clip-62"></g>
                            <polygon id="Fill-61" fill="#FF9836" mask="url(#mask-42)" points="21.8385521 22.841993 30.6868197 33.9636972 12.9902845 33.9636972"></polygon>
                        </g>
                        <mask id="mask-44" fill="white">
                            <use xlink:href="#path-43"></use>
                        </mask>
                        <g id="Clip-65"></g>
                        <polygon id="Fill-64" fill="#FF9836" mask="url(#mask-44)" points="21.6670845 26.6424225 22.0097746 26.6424225 22.0097746 -0.113549296 21.6670845 -0.113549296"></polygon>
                        <polygon id="Fill-66" fill="#FFB256" mask="url(#mask-44)" points="21.8385521 33.963493 21.8385521 22.8417887 30.6868197 33.963493"></polygon>
                        <path d="M47.1078451,55.1785859 L40.4117042,62.5016986 C39.8566197,63.1090648 38.9139155,63.1515437 38.3065493,62.5956423 L27.7754648,52.9668254 C27.1680986,52.4117408 27.1260282,51.4686282 27.6815211,50.861262 L34.3772535,43.5381493 C34.9327465,42.9307831 35.8754507,42.8887127 36.4828169,43.4442056 L47.0139014,53.0730225 C47.6208592,53.6285155 47.663338,54.5712197 47.1078451,55.1785859" id="Fill-67" fill="#FFFFFF" mask="url(#mask-44)"></path>
                        <polygon id="Fill-68" fill="#3D7DEB" mask="url(#mask-44)" points="45.1186085 53.3956169 38.4584113 60.6795183 28.9018901 51.9415324 35.5624958 44.657631"></polygon>
                        <path d="M43.1894549,57.5515211 C43.4202296,57.7626901 43.4361592,58.1209014 43.2253986,58.3512676 C43.0142296,58.5816338 42.6564268,58.5979718 42.4256521,58.3872113 C42.1948775,58.1760423 42.1789479,57.817831 42.3897085,57.5874648 C42.6008775,57.3566901 42.9590887,57.3407606 43.1894549,57.5515211" id="Fill-69" fill="#BB6631" mask="url(#mask-44)"></path>
                    </g>
                    <path d="M52.5723121,63 C51.6280184,62.4231069 49.7436485,61.0257534 49.6643599,61.0100675 C49.6643599,61.0100675 46.916672,60.5564831 45.9593042,59.7669588 C45.2144973,59.2854883 45.0495938,59.2480164 44.507226,59.1277578 C43.9049699,58.9944275 43.4081508,58.0162364 43.0829831,57.2210477 C42.7578155,56.425859 42.2639486,56.5787967 41.7203155,55.6899282 C41.0784151,54.6394076 42.2702748,54.7265516 42.2702748,54.7265516 C42.2702748,54.7265516 45.2296802,55.3095448 46.1668042,55.5169474 C47.1039281,55.7247858 47.3620379,55.4925471 46.8778712,54.7906024 C46.3932828,54.0886578 45.8656761,52.91875 46.1431863,52.2573273 C46.4206964,51.5950331 46.8795582,52.4202865 46.8795582,52.4202865 C46.8795582,52.4202865 48.1540805,54.0947578 48.8006201,54.7692522 C49.1464534,55.1300282 51.5166769,56.7678991 54.5304878,58.6672019 L52.5723121,63 Z" id="Fill-71" fill="#FFB256"></path>
                </g>
            </g>
        </g>
    </g>
</svg>