<svg width="28" height="28" viewBox="0 0 28 28" fill="none" xmlns="http://www.w3.org/2000/svg">
<path d="M27.3034 23.931L22.2667 18.8933C21.5499 18.1763 20.478 18.0084 19.5998 18.4024L17.8498 16.6586C21.2141 12.6865 21.0204 6.70573 17.2751 2.95969C13.3296 -0.986564 6.90455 -0.986564 2.95909 2.95969C-0.986365 6.90595 -0.986365 13.3323 2.95909 17.2786C4.87048 19.1904 7.41468 20.2431 10.1203 20.2431C12.4579 20.2431 14.6728 19.4552 16.4679 18.0084L18.3083 19.8491C18.2308 20.0817 18.192 20.3271 18.192 20.579C18.192 21.2184 18.4374 21.8126 18.8894 22.2647L23.9262 27.3025C24.3911 27.7675 25.0046 28 25.6116 28C26.2186 28 26.832 27.7675 27.2969 27.3025C28.2333 26.3789 28.2333 24.8611 27.3034 23.931ZM4.32806 15.9093C1.13811 12.7188 1.13811 7.51952 4.32806 4.32893C5.92303 2.73364 8.02168 1.93276 10.1203 1.93276C12.219 1.93276 14.3112 2.73364 15.9126 4.32893C19.1025 7.51952 19.1025 12.7188 15.9126 15.9093C14.3693 17.453 12.3094 18.3055 10.1203 18.3055C7.93127 18.3055 5.87783 17.4594 4.32806 15.9093Z" fill="white"/>
</svg>
